<?xml version="1.0" encoding="utf-8"?>
<!-- Generator: Adobe Illustrator 21.1.0, SVG Export Plug-In . SVG Version: 6.00 Build 0)  -->
<svg version="1.1" id="A" xmlns="http://www.w3.org/2000/svg" xmlns:xlink="http://www.w3.org/1999/xlink" x="0px" y="0px"
	 viewBox="0 0 3456 6912" style="enable-background:new 0 0 3456 6912;" xml:space="preserve">
<style type="text/css">
	.st0{fill:none;stroke:#FF0000;stroke-width:7.200000e-02;stroke-miterlimit:10;}
</style>
<g>
	<g>
		<circle class="st0" cx="1032.1" cy="1731.7" r="18.7"/>
		<circle class="st0" cx="1579.8" cy="1344.9" r="18.7"/>
		<circle class="st0" cx="1719.4" cy="1523.4" r="18.7"/>
		<circle class="st0" cx="406.9" cy="486.6" r="18.7"/>
		<circle class="st0" cx="1053.8" cy="1295.1" r="18.7"/>
		<circle class="st0" cx="1282.7" cy="317.6" r="18.7"/>
		<circle class="st0" cx="225.9" cy="1720.7" r="18.7"/>
		<circle class="st0" cx="1218" cy="987.1" r="18.7"/>
		<circle class="st0" cx="812.7" cy="1037" r="18.7"/>
		<circle class="st0" cx="341.3" cy="1132.5" r="18.7"/>
		<circle class="st0" cx="342.3" cy="1822.1" r="18.7"/>
		<circle class="st0" cx="1296.8" cy="1538.7" r="18.7"/>
		<circle class="st0" cx="1462.6" cy="1153.5" r="18.7"/>
		<circle class="st0" cx="1060.9" cy="1616.3" r="18.7"/>
		<circle class="st0" cx="1184.3" cy="1339.1" r="18.7"/>
		<circle class="st0" cx="767.1" cy="1145.2" r="18.7"/>
		<circle class="st0" cx="958.5" cy="475.2" r="18.7"/>
		<circle class="st0" cx="895.7" cy="1136.2" r="18.7"/>
		<circle class="st0" cx="654.4" cy="395.4" r="18.7"/>
		<circle class="st0" cx="969.8" cy="255.4" r="18.7"/>
		<circle class="st0" cx="636.7" cy="1614.3" r="18.7"/>
		<circle class="st0" cx="1122.8" cy="1108.2" r="18.7"/>
		<circle class="st0" cx="782.4" cy="387.5" r="18.7"/>
		<circle class="st0" cx="219.7" cy="1468.7" r="18.7"/>
		<circle class="st0" cx="1596" cy="1686.8" r="18.7"/>
		<circle class="st0" cx="565" cy="1722.3" r="18.7"/>
		<circle class="st0" cx="1132.7" cy="873.7" r="18.7"/>
		<circle class="st0" cx="1399" cy="1493.3" r="18.7"/>
		<circle class="st0" cx="473.4" cy="1467" r="18.7"/>
		<circle class="st0" cx="1030.8" cy="683.3" r="18.7"/>
		<circle class="st0" cx="1602.3" cy="1563.3" r="18.7"/>
		<circle class="st0" cx="1040.1" cy="808.9" r="18.7"/>
		<circle class="st0" cx="1482.7" cy="1683.7" r="18.7"/>
		<circle class="st0" cx="497.1" cy="529.5" r="18.7"/>
		<circle class="st0" cx="466.5" cy="1109.7" r="18.7"/>
		<circle class="st0" cx="1148.7" cy="1691.7" r="18.7"/>
		<circle class="st0" cx="1076.2" cy="1399.7" r="18.7"/>
		<circle class="st0" cx="1200.3" cy="1455.1" r="18.7"/>
		<circle class="st0" cx="1712.9" cy="1626.3" r="18.7"/>
		<circle class="st0" cx="606.2" cy="504" r="18.7"/>
		<circle class="st0" cx="524.1" cy="1590.5" r="18.7"/>
		<circle class="st0" cx="1646.8" cy="1437.1" r="18.7"/>
		<circle class="st0" cx="1347.6" cy="1159.4" r="18.7"/>
		<circle class="st0" cx="548.2" cy="1214.4" r="18.7"/>
		<circle class="st0" cx="390.9" cy="1351.6" r="18.7"/>
		<circle class="st0" cx="723.4" cy="290.8" r="18.7"/>
		<circle class="st0" cx="615.8" cy="825" r="18.7"/>
		<circle class="st0" cx="611.6" cy="947.7" r="18.7"/>
		<circle class="st0" cx="1373.5" cy="1650.2" r="18.7"/>
		<circle class="st0" cx="1241" cy="865.8" r="18.7"/>
		<circle class="st0" cx="492.1" cy="278.6" r="18.7"/>
		<circle class="st0" cx="1328.4" cy="793.5" r="18.7"/>
		<circle class="st0" cx="1313.4" cy="1391.3" r="18.7"/>
		<circle class="st0" cx="1078.5" cy="470.1" r="18.7"/>
		<circle class="st0" cx="1297.3" cy="661.7" r="18.7"/>
		<circle class="st0" cx="71.5" cy="1875.5" r="18.7"/>
		<circle class="st0" cx="1232.4" cy="1131.6" r="18.7"/>
		<circle class="st0" cx="678.7" cy="601.4" r="18.7"/>
		<circle class="st0" cx="305.2" cy="1247.8" r="18.7"/>
		<circle class="st0" cx="1198" cy="184.1" r="18.7"/>
		<circle class="st0" cx="553.8" cy="624.1" r="18.7"/>
		<circle class="st0" cx="1526.8" cy="1462.8" r="18.7"/>
		<circle class="st0" cx="430" cy="1233" r="18.7"/>
		<circle class="st0" cx="510.2" cy="1348" r="18.7"/>
		<circle class="st0" cx="1352.3" cy="923.6" r="18.7"/>
		<circle class="st0" cx="494.7" cy="987.8" r="18.7"/>
		<circle class="st0" cx="524.4" cy="404" r="18.7"/>
		<circle class="st0" cx="913.4" cy="374.7" r="18.7"/>
		<circle class="st0" cx="1411.6" cy="1041.2" r="18.7"/>
		<circle class="st0" cx="206.6" cy="1841.3" r="18.7"/>
		<circle class="st0" cx="379.9" cy="240.2" r="18.7"/>
		<circle class="st0" cx="591.7" cy="1086.8" r="18.7"/>
		<circle class="st0" cx="1012.2" cy="577.2" r="18.7"/>
		<circle class="st0" cx="1075.7" cy="1504.7" r="18.7"/>
		<circle class="st0" cx="1284.3" cy="430.9" r="18.7"/>
		<circle class="st0" cx="390.6" cy="893.6" r="18.7"/>
		<circle class="st0" cx="1179.5" cy="1573.8" r="18.7"/>
		<circle class="st0" cx="1013.1" cy="1073.8" r="18.7"/>
		<circle class="st0" cx="726.6" cy="492.6" r="18.7"/>
		<circle class="st0" cx="174.7" cy="1578.1" r="18.7"/>
		<circle class="st0" cx="620.7" cy="1840.8" r="18.7"/>
		<circle class="st0" cx="417.2" cy="630.6" r="18.7"/>
		<circle class="st0" cx="1306.8" cy="1042" r="18.7"/>
		<circle class="st0" cx="1282.2" cy="551.3" r="18.7"/>
		<circle class="st0" cx="346.6" cy="1466.9" r="18.7"/>
		<circle class="st0" cx="515.7" cy="734" r="18.7"/>
		<circle class="st0" cx="406.9" cy="362.8" r="18.7"/>
		<circle class="st0" cx="1041" cy="354.7" r="18.7"/>
		<circle class="st0" cx="333.5" cy="1693.1" r="18.7"/>
		<circle class="st0" cx="690.8" cy="1747.1" r="18.7"/>
		<circle class="st0" cx="1008.5" cy="1192.3" r="18.7"/>
		<circle class="st0" cx="480.1" cy="1827.8" r="18.7"/>
		<circle class="st0" cx="1224" cy="738.1" r="18.7"/>
		<circle class="st0" cx="1152.8" cy="609.3" r="18.7"/>
		<circle class="st0" cx="617.5" cy="1326.9" r="18.7"/>
		<circle class="st0" cx="1165.9" cy="340.8" r="18.7"/>
		<circle class="st0" cx="1089.6" cy="227.6" r="18.7"/>
		<circle class="st0" cx="1128.3" cy="741.4" r="18.7"/>
		<circle class="st0" cx="698.8" cy="1031.9" r="18.7"/>
		<circle class="st0" cx="641.3" cy="711.6" r="18.7"/>
		<circle class="st0" cx="603" cy="293.4" r="18.7"/>
		<circle class="st0" cx="407" cy="1581.6" r="18.7"/>
		<circle class="st0" cx="1181.1" cy="481.2" r="18.7"/>
		<circle class="st0" cx="1271.2" cy="1260.4" r="18.7"/>
		<circle class="st0" cx="286.3" cy="1582.2" r="18.7"/>
		<circle class="st0" cx="1390.8" cy="1274.2" r="18.7"/>
		<circle class="st0" cx="1111.2" cy="995.2" r="18.7"/>
		<circle class="st0" cx="1019.2" cy="938.6" r="18.7"/>
		<circle class="st0" cx="1447.7" cy="1374.1" r="18.7"/>
		<circle class="st0" cx="667.7" cy="1199.6" r="18.7"/>
		<circle class="st0" cx="123.8" cy="1672.1" r="18.7"/>
		<circle class="st0" cx="403.9" cy="763.8" r="18.7"/>
		<circle class="st0" cx="265.2" cy="1359.8" r="18.7"/>
		<circle class="st0" cx="1302.9" cy="213.3" r="18.7"/>
		<circle class="st0" cx="1323.1" cy="103.5" r="18.7"/>
		<circle class="st0" cx="767.5" cy="1872.5" r="18.7"/>
		<circle class="st0" cx="1263.6" cy="1668.4" r="18.7"/>
		<circle class="st0" cx="1708.2" cy="1730" r="18.7"/>
		<circle class="st0" cx="444.9" cy="1708.6" r="18.7"/>
		<circle class="st0" cx="503.1" cy="860.8" r="18.7"/>
		<circle class="st0" cx="370.7" cy="1014.7" r="18.7"/>
		<circle class="st0" cx="922.5" cy="1011" r="18.7"/>
		<circle class="st0" cx="87.3" cy="1772.3" r="18.7"/>
		<circle class="st0" cx="1146" cy="1221.4" r="18.7"/>
		<circle class="st0" cx="599.1" cy="1471.1" r="18.7"/>
		<circle class="st0" cx="1482" cy="1577" r="18.7"/>
		<circle class="st0" cx="847.3" cy="279.1" r="18.7"/>
		<circle class="st0" cx="1517" cy="1253.5" r="18.7"/>
	</g>
</g>
<rect x="7.1" y="7.2" class="st0" width="1781.6" height="1967.1"/>
</svg>
