<?xml version="1.0" encoding="utf-8"?>
<!-- Generator: Adobe Illustrator 21.1.0, SVG Export Plug-In . SVG Version: 6.00 Build 0)  -->
<svg version="1.1" id="C_1_" xmlns="http://www.w3.org/2000/svg" xmlns:xlink="http://www.w3.org/1999/xlink" x="0px" y="0px"
	 viewBox="0 0 3456 6912" style="enable-background:new 0 0 3456 6912;" xml:space="preserve">
<style type="text/css">
	.st0{fill:none;stroke:#FF0000;stroke-width:7.200000e-02;stroke-miterlimit:10;}
	.st1{fill:#FFFFFF;stroke:#000000;stroke-miterlimit:10;}
</style>
<g>
	<g>
		<circle class="st0" cx="1789.4" cy="208.5" r="18.7"/>
		<circle class="st0" cx="2105.3" cy="1001.5" r="18.7"/>
		<circle class="st0" cx="1324.8" cy="3283.3" r="18.7"/>
		<circle class="st0" cx="1628.5" cy="2427.2" r="18.7"/>
		<circle class="st0" cx="1336.8" cy="2406.3" r="18.7"/>
		<circle class="st0" cx="2776.7" cy="854" r="18.7"/>
		<circle class="st0" cx="2995.3" cy="1306.4" r="18.7"/>
		<circle class="st0" cx="1295.2" cy="3754.8" r="18.7"/>
		<circle class="st0" cx="2733.9" cy="1391" r="18.7"/>
		<circle class="st0" cx="2004.4" cy="2770.7" r="18.7"/>
		<circle class="st0" cx="1493.7" cy="4155" r="18.7"/>
		<circle class="st0" cx="2325.1" cy="617.6" r="18.7"/>
		<circle class="st0" cx="1258.7" cy="1546.1" r="18.7"/>
		<circle class="st0" cx="1488" cy="1159.5" r="18.7"/>
		<circle class="st0" cx="1309.8" cy="2019.3" r="18.7"/>
		<circle class="st0" cx="1021.4" cy="2660.9" r="18.7"/>
		<circle class="st0" cx="1027.5" cy="2522.9" r="18.7"/>
		<circle class="st0" cx="1568.5" cy="2548.9" r="18.7"/>
		<circle class="st0" cx="1587.5" cy="1836.5" r="18.7"/>
		<circle class="st0" cx="1750.3" cy="4396.8" r="18.7"/>
		<circle class="st0" cx="832.5" cy="4346.1" r="18.7"/>
		<circle class="st0" cx="1010.2" cy="2020.2" r="18.7"/>
		<circle class="st0" cx="1470.6" cy="2968.6" r="18.7"/>
		<circle class="st0" cx="682.3" cy="2324.3" r="18.7"/>
		<circle class="st0" cx="2270.8" cy="861.4" r="18.7"/>
		<circle class="st0" cx="1241.3" cy="2100.8" r="18.7"/>
		<circle class="st0" cx="1637.1" cy="4439.9" r="18.7"/>
		<circle class="st0" cx="393.5" cy="3660.8" r="18.7"/>
		<circle class="st0" cx="2124.1" cy="1768.3" r="18.7"/>
		<circle class="st0" cx="2416.4" cy="1581.5" r="18.7"/>
		<circle class="st0" cx="1315.4" cy="4612" r="18.7"/>
		<circle class="st0" cx="1124" cy="2330.3" r="18.7"/>
		<circle class="st0" cx="3116.4" cy="1322.3" r="18.7"/>
		<circle class="st0" cx="2766.4" cy="996" r="18.7"/>
		<circle class="st0" cx="986.6" cy="2278.5" r="18.7"/>
		<circle class="st0" cx="1897.9" cy="3584.8" r="18.7"/>
		<circle class="st0" cx="1814.6" cy="1105.3" r="18.7"/>
		<circle class="st0" cx="2369.9" cy="1189.1" r="18.7"/>
		<circle class="st0" cx="1304.9" cy="593.1" r="18.7"/>
		<circle class="st0" cx="1903.4" cy="3700.9" r="18.7"/>
		<circle class="st0" cx="1691.4" cy="2537.2" r="18.7"/>
		<circle class="st0" cx="933.7" cy="2581.6" r="18.7"/>
		<circle class="st0" cx="901.8" cy="3981.3" r="18.7"/>
		<circle class="st0" cx="1708.8" cy="1775.4" r="18.7"/>
		<circle class="st0" cx="2649" cy="903.7" r="18.7"/>
		<circle class="st0" cx="1660.5" cy="3228.2" r="18.7"/>
		<circle class="st0" cx="1530.4" cy="3183.4" r="18.7"/>
		<circle class="st0" cx="1537.9" cy="917.4" r="18.7"/>
		<circle class="st0" cx="523.2" cy="3447.2" r="18.7"/>
		<circle class="st0" cx="1497.5" cy="1765.8" r="18.7"/>
		<circle class="st0" cx="1423.8" cy="4489.2" r="18.7"/>
		<circle class="st0" cx="1810.5" cy="2513.1" r="18.7"/>
		<circle class="st0" cx="1221.3" cy="2404.2" r="18.7"/>
		<circle class="st0" cx="1085.7" cy="2223.4" r="18.7"/>
		<circle class="st0" cx="908.1" cy="2463.4" r="18.7"/>
		<circle class="st0" cx="816.1" cy="1099.6" r="18.7"/>
		<circle class="st0" cx="1921.8" cy="4026.9" r="18.7"/>
		<circle class="st0" cx="1372.5" cy="1591.8" r="18.7"/>
		<circle class="st0" cx="2643.4" cy="1200.5" r="18.7"/>
		<circle class="st0" cx="673.8" cy="3140.6" r="18.7"/>
		<circle class="st0" cx="747.7" cy="3485.4" r="18.7"/>
		<circle class="st0" cx="1738.8" cy="2409.2" r="18.7"/>
		<circle class="st0" cx="409.8" cy="3402.4" r="18.7"/>
		<circle class="st0" cx="1967.3" cy="1557.5" r="18.7"/>
		<circle class="st0" cx="1029.3" cy="4164.9" r="18.7"/>
		<circle class="st0" cx="1018.6" cy="2397.7" r="18.7"/>
		<circle class="st0" cx="1307" cy="897.6" r="18.7"/>
		<circle class="st0" cx="2317.4" cy="2168.8" r="18.7"/>
		<circle class="st0" cx="2184" cy="427.9" r="18.7"/>
		<circle class="st0" cx="1946.4" cy="815.7" r="18.7"/>
		<circle class="st0" cx="2211.5" cy="2191" r="18.7"/>
		<circle class="st0" cx="2866.2" cy="922.6" r="18.7"/>
		<circle class="st0" cx="1904.9" cy="2700.2" r="18.7"/>
		<circle class="st0" cx="2386" cy="723.5" r="18.7"/>
		<circle class="st0" cx="1947.7" cy="4407.1" r="18.7"/>
		<circle class="st0" cx="1929" cy="1317.3" r="18.7"/>
		<circle class="st0" cx="1361.1" cy="2767.2" r="18.7"/>
		<circle class="st0" cx="1326.8" cy="3963.6" r="18.7"/>
		<circle class="st0" cx="1451" cy="250.3" r="18.7"/>
		<circle class="st0" cx="1278.4" cy="4085.1" r="18.7"/>
		<circle class="st0" cx="793" cy="3105.3" r="18.7"/>
		<circle class="st0" cx="1275.8" cy="504.9" r="18.7"/>
		<circle class="st0" cx="1301" cy="3159.2" r="18.7"/>
		<circle class="st0" cx="1814.7" cy="3929.5" r="18.7"/>
		<circle class="st0" cx="1825.6" cy="610.4" r="18.7"/>
		<circle class="st0" cx="1204.5" cy="934.5" r="18.7"/>
		<circle class="st0" cx="1193.8" cy="2207.1" r="18.7"/>
		<circle class="st0" cx="518.1" cy="2811.7" r="18.7"/>
		<circle class="st0" cx="1403.5" cy="4061.3" r="18.7"/>
		<circle class="st0" cx="1564.7" cy="2319.4" r="18.7"/>
		<circle class="st0" cx="2544.1" cy="1549.9" r="18.7"/>
		<circle class="st0" cx="2025.4" cy="2086.7" r="18.7"/>
		<circle class="st0" cx="649.1" cy="3750.3" r="18.7"/>
		<circle class="st0" cx="1557.2" cy="3725.5" r="18.7"/>
		<circle class="st0" cx="2260.2" cy="1398.4" r="18.7"/>
		<circle class="st0" cx="684.2" cy="4009.2" r="18.7"/>
		<circle class="st0" cx="775" cy="2425.8" r="18.7"/>
		<circle class="st0" cx="1230.6" cy="4194.8" r="18.7"/>
		<circle class="st0" cx="1834.4" cy="4083.4" r="18.7"/>
		<circle class="st0" cx="1898.3" cy="3813.8" r="18.7"/>
		<circle class="st0" cx="1229.5" cy="3864.2" r="18.7"/>
		<circle class="st0" cx="945.5" cy="4247.5" r="18.7"/>
		<circle class="st0" cx="1380.8" cy="1712.4" r="18.7"/>
		<circle class="st0" cx="1940.2" cy="2459.9" r="18.7"/>
		<circle class="st0" cx="2107.1" cy="1979.6" r="18.7"/>
		<circle class="st0" cx="2164.6" cy="2314" r="18.7"/>
		<circle class="st0" cx="1155.8" cy="4467.9" r="18.7"/>
		<circle class="st0" cx="1686.2" cy="1415.5" r="18.7"/>
		<circle class="st0" cx="1748.8" cy="4275.5" r="18.7"/>
		<circle class="st0" cx="876" cy="2209.8" r="18.7"/>
		<circle class="st0" cx="1582.7" cy="1979.4" r="18.7"/>
		<circle class="st0" cx="651.4" cy="2655" r="18.7"/>
		<circle class="st0" cx="1710.1" cy="3894.2" r="18.7"/>
		<circle class="st0" cx="816.9" cy="4505.3" r="18.7"/>
		<circle class="st0" cx="2180.1" cy="1882.5" r="18.7"/>
		<circle class="st0" cx="929.4" cy="574.7" r="18.7"/>
		<circle class="st0" cx="2573.5" cy="1009.6" r="18.7"/>
		<circle class="st0" cx="1815.6" cy="2957.4" r="18.7"/>
		<circle class="st0" cx="1592.3" cy="1597.6" r="18.7"/>
		<circle class="st0" cx="1002.8" cy="1809.7" r="18.7"/>
		<circle class="st0" cx="632.2" cy="4205.7" r="18.7"/>
		<circle class="st0" cx="1852.2" cy="1968.5" r="18.7"/>
		<circle class="st0" cx="1944" cy="686.1" r="18.7"/>
		<circle class="st0" cx="1499.7" cy="3077.6" r="18.7"/>
		<circle class="st0" cx="1713.8" cy="1180.7" r="18.7"/>
		<circle class="st0" cx="544.1" cy="2690.5" r="18.7"/>
		<circle class="st0" cx="1568.6" cy="316.4" r="18.7"/>
		<circle class="st0" cx="2501.2" cy="925.6" r="18.7"/>
		<circle class="st0" cx="696" cy="3010" r="18.7"/>
		<circle class="st0" cx="1262.9" cy="2828.5" r="18.7"/>
		<circle class="st0" cx="2502" cy="1666.7" r="18.7"/>
		<circle class="st0" cx="2007.4" cy="290.5" r="18.7"/>
		<circle class="st0" cx="1889.9" cy="2838.4" r="18.7"/>
		<circle class="st0" cx="1793.8" cy="1861.5" r="18.7"/>
		<circle class="st0" cx="2615.1" cy="1449" r="18.7"/>
		<circle class="st0" cx="1847.2" cy="2399.5" r="18.7"/>
		<circle class="st0" cx="2475.5" cy="2363.4" r="18.7"/>
		<circle class="st0" cx="2448.5" cy="1069.5" r="18.7"/>
		<circle class="st0" cx="1839.1" cy="753.7" r="18.7"/>
		<circle class="st0" cx="867.1" cy="3478.9" r="18.7"/>
		<circle class="st0" cx="459.9" cy="3055.4" r="18.7"/>
		<circle class="st0" cx="2279.1" cy="740.9" r="18.7"/>
		<circle class="st0" cx="1555.1" cy="3281.1" r="18.7"/>
		<circle class="st0" cx="1951.4" cy="4142.1" r="18.7"/>
		<circle class="st0" cx="1277.4" cy="1668.6" r="18.7"/>
		<circle class="st0" cx="719" cy="4138.2" r="18.7"/>
		<circle class="st0" cx="1465.5" cy="1407.5" r="18.7"/>
		<circle class="st0" cx="788" cy="3716.7" r="18.7"/>
		<circle class="st0" cx="1896.1" cy="1454.9" r="18.7"/>
		<circle class="st0" cx="2136.6" cy="1434" r="18.7"/>
		<circle class="st0" cx="1901.1" cy="241.3" r="18.7"/>
		<circle class="st0" cx="1167.7" cy="537.6" r="18.7"/>
		<circle class="st0" cx="1473.9" cy="2744.6" r="18.7"/>
		<circle class="st0" cx="1095.6" cy="946.9" r="18.7"/>
		<circle class="st0" cx="2233.6" cy="980.3" r="18.7"/>
		<circle class="st0" cx="2288.1" cy="1280.2" r="18.7"/>
		<circle class="st0" cx="2342.9" cy="1482" r="18.7"/>
		<circle class="st0" cx="1364.9" cy="3852.9" r="18.7"/>
		<circle class="st0" cx="1485.8" cy="1650" r="18.7"/>
		<circle class="st0" cx="1136.2" cy="1835.3" r="18.7"/>
		<circle class="st0" cx="668.9" cy="3270.4" r="18.7"/>
		<circle class="st0" cx="2870.3" cy="1354.2" r="18.7"/>
		<circle class="st0" cx="1189.9" cy="1740" r="18.7"/>
		<circle class="st0" cx="1903.1" cy="375.9" r="18.7"/>
		<circle class="st0" cx="1228.5" cy="1913.1" r="18.7"/>
		<circle class="st0" cx="1537.5" cy="714.3" r="18.7"/>
		<circle class="st0" cx="2288.4" cy="1918" r="18.7"/>
		<circle class="st0" cx="1473" cy="2220.5" r="18.7"/>
		<circle class="st0" cx="548.8" cy="4265.1" r="18.7"/>
		<circle class="st0" cx="935.2" cy="1904" r="18.7"/>
		<circle class="st0" cx="958.3" cy="4356.1" r="18.7"/>
		<circle class="st0" cx="552.7" cy="3962.1" r="18.7"/>
		<circle class="st0" cx="1379.3" cy="4388.8" r="18.7"/>
		<circle class="st0" cx="1530.8" cy="582.9" r="18.7"/>
		<circle class="st0" cx="827.7" cy="4206.2" r="18.7"/>
		<circle class="st0" cx="797.5" cy="2304.2" r="18.7"/>
		<circle class="st0" cx="2378.9" cy="1710.7" r="18.7"/>
		<circle class="st0" cx="2097.2" cy="1550.1" r="18.7"/>
		<circle class="st0" cx="756.5" cy="2659.2" r="18.7"/>
		<circle class="st0" cx="1784.7" cy="975.1" r="18.7"/>
		<circle class="st0" cx="2464.5" cy="1457.9" r="18.7"/>
		<circle class="st0" cx="954.1" cy="3595.4" r="18.7"/>
		<circle class="st0" cx="2181.9" cy="1656.5" r="18.7"/>
		<circle class="st0" cx="1037.1" cy="1073.5" r="18.7"/>
		<circle class="st0" cx="1635.7" cy="3994.9" r="18.7"/>
		<circle class="st0" cx="2468.6" cy="2494" r="18.7"/>
		<circle class="st0" cx="1579.8" cy="1476.2" r="18.7"/>
		<circle class="st0" cx="1433.6" cy="640.6" r="18.7"/>
		<circle class="st0" cx="1527.3" cy="2099.5" r="18.7"/>
		<circle class="st0" cx="2888.2" cy="1227.8" r="18.7"/>
		<circle class="st0" cx="906.1" cy="4447.4" r="18.7"/>
		<circle class="st0" cx="2010.9" cy="1443.9" r="18.7"/>
		<circle class="st0" cx="1980.3" cy="4254.8" r="18.7"/>
		<circle class="st0" cx="1359.6" cy="1471.4" r="18.7"/>
		<circle class="st0" cx="2496.3" cy="1902.7" r="18.7"/>
		<circle class="st0" cx="1916.5" cy="3919.8" r="18.7"/>
		<circle class="st0" cx="1361.8" cy="4176.3" r="18.7"/>
		<circle class="st0" cx="1645.8" cy="3801.5" r="18.7"/>
		<circle class="st0" cx="796.1" cy="2101.6" r="18.7"/>
		<circle class="st0" cx="533.6" cy="3835" r="18.7"/>
		<circle class="st0" cx="1302.5" cy="4289.6" r="18.7"/>
		<circle class="st0" cx="510" cy="3715.3" r="18.7"/>
		<circle class="st0" cx="1424.2" cy="3748.9" r="18.7"/>
		<circle class="st0" cx="2032.7" cy="1222.3" r="18.7"/>
		<circle class="st0" cx="819.3" cy="2984.2" r="18.7"/>
		<circle class="st0" cx="2298.1" cy="1624.2" r="18.7"/>
		<circle class="st0" cx="1776.2" cy="2634.9" r="18.7"/>
		<circle class="st0" cx="1913.7" cy="1854" r="18.7"/>
		<circle class="st0" cx="1508.3" cy="4375.9" r="18.7"/>
		<circle class="st0" cx="502.1" cy="3577.9" r="18.7"/>
		<circle class="st0" cx="1602.1" cy="3007.9" r="18.7"/>
		<circle class="st0" cx="2052.5" cy="1661.8" r="18.7"/>
		<circle class="st0" cx="485.2" cy="2934.5" r="18.7"/>
		<circle class="st0" cx="2675.3" cy="1068.8" r="18.7"/>
		<circle class="st0" cx="996.3" cy="3910.8" r="18.7"/>
		<circle class="st0" cx="1451.1" cy="3940.2" r="18.7"/>
		<circle class="st0" cx="1282.2" cy="1804.6" r="18.7"/>
		<circle class="st0" cx="1261.1" cy="4405.9" r="18.7"/>
		<circle class="st0" cx="2485.6" cy="1783.4" r="18.7"/>
		<circle class="st0" cx="1850.3" cy="3081.5" r="18.7"/>
		<circle class="st0" cx="2555.6" cy="2624.7" r="18.7"/>
		<circle class="st0" cx="1053.2" cy="543.2" r="18.7"/>
		<circle class="st0" cx="2048" cy="1336.8" r="18.7"/>
		<circle class="st0" cx="497.1" cy="4154.9" r="18.7"/>
		<circle class="st0" cx="1696.7" cy="1053.7" r="18.7"/>
		<circle class="st0" cx="911.3" cy="2089.3" r="18.7"/>
		<circle class="st0" cx="1183.1" cy="2916.1" r="18.7"/>
		<circle class="st0" cx="2197.8" cy="633.8" r="18.7"/>
		<circle class="st0" cx="1576.2" cy="4574.1" r="18.7"/>
		<circle class="st0" cx="724.1" cy="4429.4" r="18.7"/>
		<circle class="st0" cx="2626.7" cy="1314.4" r="18.7"/>
		<circle class="st0" cx="1069.1" cy="4585.5" r="18.7"/>
		<circle class="st0" cx="1502.2" cy="3829.8" r="18.7"/>
		<circle class="st0" cx="1725.9" cy="3035.2" r="18.7"/>
		<circle class="st0" cx="2581.6" cy="2519.2" r="18.7"/>
		<circle class="st0" cx="1869" cy="895.6" r="18.7"/>
		<circle class="st0" cx="1737.7" cy="4026.4" r="18.7"/>
		<circle class="st0" cx="1370.2" cy="2898.8" r="18.7"/>
		<circle class="st0" cx="1562.4" cy="202.8" r="18.7"/>
		<circle class="st0" cx="2135.5" cy="883.7" r="18.7"/>
		<circle class="st0" cx="872.1" cy="2672.3" r="18.7"/>
		<circle class="st0" cx="1522" cy="4032.8" r="18.7"/>
		<circle class="st0" cx="1693.4" cy="1543.4" r="18.7"/>
		<circle class="st0" cx="1141.8" cy="4092.9" r="18.7"/>
		<circle class="st0" cx="2550.2" cy="1130.4" r="18.7"/>
		<circle class="st0" cx="1746.3" cy="844.7" r="18.7"/>
		<circle class="st0" cx="1409.4" cy="2495.1" r="18.7"/>
		<circle class="st0" cx="1887.6" cy="496.3" r="18.7"/>
		<circle class="st0" cx="1150.9" cy="3141.4" r="18.7"/>
		<circle class="st0" cx="1636.2" cy="4330.7" r="18.7"/>
		<circle class="st0" cx="833.7" cy="3597" r="18.7"/>
		<circle class="st0" cx="630.5" cy="4354.3" r="18.7"/>
		<circle class="st0" cx="1446.1" cy="2005.4" r="18.7"/>
		<circle class="st0" cx="2341.5" cy="2050.7" r="18.7"/>
		<circle class="st0" cx="798.2" cy="3358.4" r="18.7"/>
		<circle class="st0" cx="1923.1" cy="1663.3" r="18.7"/>
		<circle class="st0" cx="1646" cy="2656.8" r="18.7"/>
		<circle class="st0" cx="737.8" cy="2206.6" r="18.7"/>
		<circle class="st0" cx="1053.9" cy="3683.9" r="18.7"/>
		<circle class="st0" cx="1904.4" cy="2582.1" r="18.7"/>
		<circle class="st0" cx="1809.5" cy="1361.6" r="18.7"/>
		<circle class="st0" cx="2050.7" cy="4337.6" r="18.7"/>
		<circle class="st0" cx="1808.5" cy="2744.4" r="18.7"/>
		<circle class="st0" cx="864.8" cy="2869.9" r="18.7"/>
		<circle class="st0" cx="1726" cy="715.1" r="18.7"/>
		<circle class="st0" cx="2019.8" cy="1087.7" r="18.7"/>
		<circle class="st0" cx="1618" cy="4107.2" r="18.7"/>
		<circle class="st0" cx="1833.8" cy="4473.2" r="18.7"/>
		<circle class="st0" cx="1784.7" cy="2079.3" r="18.7"/>
		<circle class="st0" cx="2578.4" cy="2401.3" r="18.7"/>
		<circle class="st0" cx="1181.2" cy="4328.5" r="18.7"/>
		<circle class="st0" cx="2105.2" cy="348.9" r="18.7"/>
		<circle class="st0" cx="1130.2" cy="2461.8" r="18.7"/>
		<circle class="st0" cx="1632.2" cy="3117" r="18.7"/>
		<circle class="st0" cx="1725.2" cy="2187" r="18.7"/>
		<circle class="st0" cx="1173.5" cy="3732.9" r="18.7"/>
		<circle class="st0" cx="608.8" cy="2909.2" r="18.7"/>
		<circle class="st0" cx="1984.3" cy="1762.1" r="18.7"/>
		<circle class="st0" cx="1570.4" cy="2902.5" r="18.7"/>
		<circle class="st0" cx="1118.4" cy="4224.9" r="18.7"/>
		<circle class="st0" cx="1980.7" cy="569" r="18.7"/>
		<circle class="st0" cx="1766.7" cy="474.9" r="18.7"/>
		<circle class="st0" cx="2088.9" cy="2196.9" r="18.7"/>
		<circle class="st0" cx="394.4" cy="3528.8" r="18.7"/>
		<circle class="st0" cx="2420.6" cy="2252" r="18.7"/>
		<circle class="st0" cx="2372.5" cy="2386.7" r="18.7"/>
		<circle class="st0" cx="1066.1" cy="4333.5" r="18.7"/>
		<circle class="st0" cx="2406.2" cy="1964.5" r="18.7"/>
		<circle class="st0" cx="1949.3" cy="3495.9" r="18.7"/>
		<circle class="st0" cx="1683.1" cy="3687.8" r="18.7"/>
		<circle class="st0" cx="1587.6" cy="1240.6" r="18.7"/>
		<circle class="st0" cx="733.5" cy="2884.6" r="18.7"/>
		<circle class="st0" cx="1700.1" cy="1298.5" r="18.7"/>
		<circle class="st0" cx="1835" cy="1738.7" r="18.7"/>
		<circle class="st0" cx="1422.3" cy="909.2" r="18.7"/>
		<circle class="st0" cx="1758.4" cy="3159.3" r="18.7"/>
		<circle class="st0" cx="2433.1" cy="2124.7" r="18.7"/>
		<circle class="st0" cx="1697.9" cy="2764.7" r="18.7"/>
		<circle class="st0" cx="1577.6" cy="3907.3" r="18.7"/>
		<circle class="st0" cx="2113.2" cy="532.6" r="18.7"/>
		<circle class="st0" cx="714.9" cy="3616.2" r="18.7"/>
		<circle class="st0" cx="917.6" cy="4115" r="18.7"/>
		<circle class="st0" cx="807.3" cy="4063.9" r="18.7"/>
		<circle class="st0" cx="878" cy="3842.1" r="18.7"/>
		<circle class="st0" cx="1653.1" cy="2083.3" r="18.7"/>
		<circle class="st0" cx="1439.6" cy="3292.9" r="18.7"/>
		<circle class="st0" cx="2161" cy="1314" r="18.7"/>
		<circle class="st0" cx="1600.4" cy="2201.1" r="18.7"/>
		<circle class="st0" cx="1406.5" cy="533.8" r="18.7"/>
		<circle class="st0" cx="2231.6" cy="2031.3" r="18.7"/>
		<circle class="st0" cx="1134.2" cy="2579" r="18.7"/>
		<circle class="st0" cx="453.4" cy="4039.2" r="18.7"/>
		<circle class="st0" cx="1282.2" cy="2961.6" r="18.7"/>
		<circle class="st0" cx="2019.5" cy="439.8" r="18.7"/>
		<circle class="st0" cx="3052.5" cy="760.3" r="18.7"/>
		<circle class="st0" cx="1686.4" cy="2301.7" r="18.7"/>
		<circle class="st0" cx="2143.8" cy="2094.4" r="18.7"/>
		<circle class="st0" cx="1575.7" cy="1356.2" r="18.7"/>
		<circle class="st0" cx="704.9" cy="2536.7" r="18.7"/>
		<circle class="st0" cx="1777.5" cy="2852.7" r="18.7"/>
		<circle class="st0" cx="1330.3" cy="248.7" r="18.7"/>
		<circle class="st0" cx="862.6" cy="1991.4" r="18.7"/>
		<circle class="st0" cx="2258.6" cy="1769.9" r="18.7"/>
		<circle class="st0" cx="1736.9" cy="4150.9" r="18.7"/>
		<circle class="st0" cx="2003.1" cy="932.3" r="18.7"/>
		<circle class="st0" cx="1399.4" cy="1820.7" r="18.7"/>
		<circle class="st0" cx="783.9" cy="3937.5" r="18.7"/>
		<circle class="st0" cx="1475" cy="1530.1" r="18.7"/>
		<circle class="st0" cx="590.5" cy="4083.6" r="18.7"/>
		<circle class="st0" cx="2559.5" cy="2275.5" r="18.7"/>
		<circle class="st0" cx="932.9" cy="2763.6" r="18.7"/>
		<circle class="st0" cx="2166" cy="761.3" r="18.7"/>
		<circle class="st0" cx="1925.8" cy="2986.4" r="18.7"/>
		<circle class="st0" cx="1788" cy="335.1" r="18.7"/>
		<circle class="st0" cx="1849.2" cy="2182" r="18.7"/>
		<circle class="st0" cx="1569.4" cy="1030" r="18.7"/>
		<circle class="st0" cx="2371" cy="955.5" r="18.7"/>
		<circle class="st0" cx="1864.3" cy="4332.3" r="18.7"/>
		<circle class="st0" cx="2374.6" cy="1835.5" r="18.7"/>
		<circle class="st0" cx="1321" cy="2190.1" r="18.7"/>
		<circle class="st0" cx="1255.5" cy="1082.3" r="18.7"/>
		<circle class="st0" cx="2515.3" cy="2032.5" r="18.7"/>
		<circle class="st0" cx="1246.7" cy="3065.8" r="18.7"/>
		<circle class="st0" cx="1111.2" cy="2104.2" r="18.7"/>
		<circle class="st0" cx="1516.4" cy="2450.9" r="18.7"/>
		<circle class="st0" cx="1605.8" cy="1132.2" r="18.7"/>
		<circle class="st0" cx="1373.8" cy="1118.4" r="18.7"/>
		<circle class="st0" cx="1909.8" cy="2078.1" r="18.7"/>
		<circle class="st0" cx="1255.9" cy="2299.9" r="18.7"/>
		<circle class="st0" cx="787.4" cy="3231.2" r="18.7"/>
		<circle class="st0" cx="1373" cy="2287.6" r="18.7"/>
		<circle class="st0" cx="2759.7" cy="1277.1" r="18.7"/>
		<circle class="st0" cx="1424.9" cy="4275.8" r="18.7"/>
		<circle class="st0" cx="943.8" cy="4559" r="18.7"/>
		<circle class="st0" cx="895.9" cy="2350.4" r="18.7"/>
		<circle class="st0" cx="1725.9" cy="1982.6" r="18.7"/>
		<circle class="st0" cx="1150.7" cy="1061.6" r="18.7"/>
		<circle class="st0" cx="576.9" cy="3045.1" r="18.7"/>
		<circle class="st0" cx="2767.3" cy="1162.5" r="18.7"/>
		<circle class="st0" cx="1454.4" cy="2359.2" r="18.7"/>
		<circle class="st0" cx="1781.3" cy="3779.4" r="18.7"/>
		<circle class="st0" cx="2518.1" cy="1355" r="18.7"/>
		<circle class="st0" cx="1161.3" cy="2002" r="18.7"/>
		<circle class="st0" cx="2406.6" cy="834.9" r="18.7"/>
		<circle class="st0" cx="1706.9" cy="4528.3" r="18.7"/>
		<circle class="st0" cx="1020.9" cy="4039.8" r="18.7"/>
		<circle class="st0" cx="1330.8" cy="1002" r="18.7"/>
		<circle class="st0" cx="1658.9" cy="932.2" r="18.7"/>
		<circle class="st0" cx="1785.7" cy="1480.1" r="18.7"/>
		<circle class="st0" cx="754.7" cy="3822.5" r="18.7"/>
		<circle class="st0" cx="1353.8" cy="1917.4" r="18.7"/>
		<circle class="st0" cx="1790.7" cy="3638" r="18.7"/>
		<circle class="st0" cx="1035.7" cy="4460.9" r="18.7"/>
		<circle class="st0" cx="789.3" cy="2772.3" r="18.7"/>
		<circle class="st0" cx="1939" cy="2330.1" r="18.7"/>
		<circle class="st0" cx="1536.8" cy="4262.7" r="18.7"/>
		<circle class="st0" cx="2015" cy="2651.9" r="18.7"/>
		<circle class="st0" cx="1591.7" cy="2794.4" r="18.7"/>
		<circle class="st0" cx="1684.8" cy="2908.8" r="18.7"/>
		<circle class="st0" cx="1487.6" cy="1898.1" r="18.7"/>
		<circle class="st0" cx="1636.4" cy="647.4" r="18.7"/>
		<circle class="st0" cx="2491.5" cy="1234.5" r="18.7"/>
		<circle class="st0" cx="987.5" cy="979.7" r="18.7"/>
		<circle class="st0" cx="1923.1" cy="1170.4" r="18.7"/>
		<circle class="st0" cx="1163.2" cy="1626.1" r="18.7"/>
		<circle class="st0" cx="2258" cy="517.8" r="18.7"/>
		<circle class="st0" cx="2049.8" cy="787.5" r="18.7"/>
		<circle class="st0" cx="1635.8" cy="4214.3" r="18.7"/>
		<circle class="st0" cx="1297.2" cy="4507.2" r="18.7"/>
		<circle class="st0" cx="997.3" cy="2152.7" r="18.7"/>
		<circle class="st0" cx="1675.1" cy="376.1" r="18.7"/>
		<circle class="st0" cx="652.4" cy="3884.3" r="18.7"/>
		<circle class="st0" cx="1261.6" cy="2515.3" r="18.7"/>
		<circle class="st0" cx="438.6" cy="3169" r="18.7"/>
		<circle class="st0" cx="583.6" cy="2558.2" r="18.7"/>
		<circle class="st0" cx="1675.6" cy="1892.1" r="18.7"/>
		<circle class="st0" cx="2026.1" cy="2533.4" r="18.7"/>
		<circle class="st0" cx="636.3" cy="2437.2" r="18.7"/>
		<circle class="st0" cx="1399.6" cy="2113.4" r="18.7"/>
		<circle class="st0" cx="1853.2" cy="4210.2" r="18.7"/>
		<circle class="st0" cx="543.5" cy="3319.2" r="18.7"/>
		<circle class="st0" cx="2287.9" cy="2302.2" r="18.7"/>
		<circle class="st0" cx="819.8" cy="2548.2" r="18.7"/>
		<circle class="st0" cx="910.9" cy="3710.4" r="18.7"/>
		<circle class="st0" cx="2327" cy="1070.2" r="18.7"/>
		<circle class="st0" cx="2073.3" cy="660.1" r="18.7"/>
		<circle class="st0" cx="1454.4" cy="1029.1" r="18.7"/>
		<circle class="st0" cx="1067.6" cy="1922.1" r="18.7"/>
		<circle class="st0" cx="1726.4" cy="1657.4" r="18.7"/>
		<circle class="st0" cx="729.2" cy="4283.4" r="18.7"/>
		<circle class="st0" cx="995.8" cy="3792.1" r="18.7"/>
		<circle class="st0" cx="1977.8" cy="1968" r="18.7"/>
		<circle class="st0" cx="1213.9" cy="3988.2" r="18.7"/>
		<circle class="st0" cx="1678.5" cy="222.3" r="18.7"/>
		<circle class="st0" cx="425.7" cy="3283.4" r="18.7"/>
		<circle class="st0" cx="1470.8" cy="2848" r="18.7"/>
		<circle class="st0" cx="2391.8" cy="1341.5" r="18.7"/>
		<circle class="st0" cx="2061" cy="2412.9" r="18.7"/>
		<circle class="st0" cx="402.7" cy="3790.8" r="18.7"/>
		<circle class="st0" cx="1107.2" cy="3830" r="18.7"/>
		<circle class="st0" cx="1215.9" cy="3236.4" r="18.7"/>
		<circle class="st0" cx="1076" cy="1718.2" r="18.7"/>
		<circle class="st0" cx="1961.1" cy="2204.9" r="18.7"/>
		<circle class="st0" cx="423.5" cy="3915.7" r="18.7"/>
		<circle class="st0" cx="1441.8" cy="4596" r="18.7"/>
		<circle class="st0" cx="653.1" cy="2779.4" r="18.7"/>
		<circle class="st0" cx="1910.4" cy="1025.1" r="18.7"/>
		<circle class="st0" cx="1814.6" cy="2288.2" r="18.7"/>
		<circle class="st0" cx="1412.3" cy="3172.2" r="18.7"/>
		<circle class="st0" cx="1374.5" cy="3046" r="18.7"/>
		<circle class="st0" cx="1536.8" cy="4482.3" r="18.7"/>
		<circle class="st0" cx="2543.7" cy="2159.2" r="18.7"/>
		<circle class="st0" cx="657.7" cy="3392" r="18.7"/>
		<circle class="st0" cx="2048.3" cy="1866.9" r="18.7"/>
		<circle class="st0" cx="1139.3" cy="3024.6" r="18.7"/>
		<circle class="st0" cx="1190.7" cy="4597.9" r="18.7"/>
		<circle class="st0" cx="1831.8" cy="1589.1" r="18.7"/>
		<circle class="st0" cx="625.3" cy="3517.1" r="18.7"/>
		<circle class="st0" cx="602.7" cy="3640.1" r="18.7"/>
		<circle class="st0" cx="1982.7" cy="2887" r="18.7"/>
		<circle class="st0" cx="1822.7" cy="1239.8" r="18.7"/>
		<circle class="st0" cx="2931.9" cy="822.5" r="18.7"/>
		<circle class="st0" cx="1607" cy="1711.7" r="18.7"/>
		<circle class="st0" cx="2047.2" cy="2299.5" r="18.7"/>
		<circle class="st0" cx="1110.6" cy="3954" r="18.7"/>
		<circle class="st0" cx="1617.8" cy="803.5" r="18.7"/>
		<circle class="st0" cx="912.8" cy="1059.1" r="18.7"/>
		<circle class="st0" cx="555.6" cy="3185" r="18.7"/>
		<circle class="st0" cx="2222.4" cy="1527.2" r="18.7"/>
	</g>
</g>
<rect x="330.8" y="140.3" class="st1" width="2921" height="4527.6"/>
</svg>
