<?xml version="1.0" encoding="utf-8"?>
<!-- Generator: Adobe Illustrator 21.1.0, SVG Export Plug-In . SVG Version: 6.00 Build 0)  -->
<svg version="1.1" id="C" xmlns="http://www.w3.org/2000/svg" xmlns:xlink="http://www.w3.org/1999/xlink" x="0px" y="0px"
	 viewBox="0 0 3456 6912" style="enable-background:new 0 0 3456 6912;" xml:space="preserve">
<style type="text/css">
	.st0{fill:none;stroke:#FF0000;stroke-width:0.1;stroke-miterlimit:10;}
	.st1{fill:none;stroke:#000000;stroke-miterlimit:10;}
</style>
<g>
	<g>
		<circle class="st0" cx="1679.2" cy="2045.3" r="18.7"/>
		<circle class="st0" cx="698.1" cy="1066" r="18.7"/>
		<circle class="st0" cx="1026.7" cy="1922.2" r="18.7"/>
		<circle class="st0" cx="944.5" cy="286.4" r="18.7"/>
		<circle class="st0" cx="1064.5" cy="2051.6" r="18.7"/>
		<circle class="st0" cx="1027.2" cy="724" r="18.7"/>
		<circle class="st0" cx="732.5" cy="1171.7" r="18.7"/>
		<circle class="st0" cx="708.4" cy="731.4" r="18.7"/>
		<circle class="st0" cx="392.1" cy="1179.7" r="18.7"/>
		<circle class="st0" cx="1281.1" cy="1551.7" r="18.7"/>
		<circle class="st0" cx="1301.4" cy="1065" r="18.7"/>
		<circle class="st0" cx="503.3" cy="977.8" r="18.7"/>
		<circle class="st0" cx="943.5" cy="2018.5" r="18.7"/>
		<circle class="st0" cx="1444.1" cy="1410.3" r="18.7"/>
		<circle class="st0" cx="686.7" cy="1483.8" r="18.7"/>
		<circle class="st0" cx="767.7" cy="625.6" r="18.7"/>
		<circle class="st0" cx="1532.2" cy="428" r="18.7"/>
		<circle class="st0" cx="1051.4" cy="1573.6" r="18.7"/>
		<circle class="st0" cx="1247.5" cy="1877.4" r="18.7"/>
		<circle class="st0" cx="874.6" cy="1747.6" r="18.7"/>
		<circle class="st0" cx="1534.1" cy="1487.4" r="18.7"/>
		<circle class="st0" cx="1456.3" cy="1830.8" r="18.7"/>
		<circle class="st0" cx="1157.4" cy="1537" r="18.7"/>
		<circle class="st0" cx="564.9" cy="877.9" r="18.7"/>
		<circle class="st0" cx="594" cy="1028.9" r="18.7"/>
		<circle class="st0" cx="536.3" cy="630.2" r="18.7"/>
		<circle class="st0" cx="1605.6" cy="766.6" r="18.7"/>
		<circle class="st0" cx="1077.5" cy="1437.2" r="18.7"/>
		<circle class="st0" cx="992.9" cy="942" r="18.7"/>
		<circle class="st0" cx="719.6" cy="1920.7" r="18.7"/>
		<circle class="st0" cx="969.7" cy="1396.8" r="18.7"/>
		<circle class="st0" cx="1205.7" cy="355.4" r="18.7"/>
		<circle class="st0" cx="795.4" cy="1260.6" r="18.7"/>
		<circle class="st0" cx="1497.2" cy="1958.3" r="18.7"/>
		<circle class="st0" cx="1190.6" cy="2079.5" r="18.7"/>
		<circle class="st0" cx="1314.6" cy="1669.6" r="18.7"/>
		<circle class="st0" cx="1186.3" cy="1057.4" r="18.7"/>
		<circle class="st0" cx="449.6" cy="842.9" r="18.7"/>
		<circle class="st0" cx="1328.3" cy="301.1" r="18.7"/>
		<circle class="st0" cx="644.6" cy="1829.9" r="18.7"/>
		<circle class="st0" cx="1246.3" cy="454.8" r="18.7"/>
		<circle class="st0" cx="1377" cy="645.8" r="18.7"/>
		<circle class="st0" cx="965" cy="827.1" r="18.7"/>
		<circle class="st0" cx="1216.7" cy="1760.6" r="18.7"/>
		<circle class="st0" cx="857.5" cy="529.3" r="18.7"/>
		<circle class="st0" cx="406.7" cy="944.7" r="18.7"/>
		<circle class="st0" cx="1131.7" cy="659.4" r="18.7"/>
		<circle class="st0" cx="1365.8" cy="423.1" r="18.7"/>
		<circle class="st0" cx="495.4" cy="1651" r="18.7"/>
		<circle class="st0" cx="845.6" cy="1616.6" r="18.7"/>
		<circle class="st0" cx="1149.1" cy="1958" r="18.7"/>
		<circle class="st0" cx="909.5" cy="1881.8" r="18.7"/>
		<circle class="st0" cx="1530.9" cy="1611.6" r="18.7"/>
		<circle class="st0" cx="1271.1" cy="1989.7" r="18.7"/>
		<circle class="st0" cx="942.2" cy="1517.8" r="18.7"/>
		<circle class="st0" cx="543.3" cy="1463.7" r="18.7"/>
		<circle class="st0" cx="414.5" cy="1420.8" r="18.7"/>
		<circle class="st0" cx="1428.6" cy="1693.5" r="18.7"/>
		<circle class="st0" cx="1167.4" cy="928.1" r="18.7"/>
		<circle class="st0" cx="1452.8" cy="519" r="18.7"/>
		<circle class="st0" cx="790.6" cy="1837.9" r="18.7"/>
		<circle class="st0" cx="1280" cy="956.8" r="18.7"/>
		<circle class="st0" cx="877.2" cy="1344" r="18.7"/>
		<circle class="st0" cx="632" cy="1380.7" r="18.7"/>
		<circle class="st0" cx="1476.5" cy="839.4" r="18.7"/>
		<circle class="st0" cx="397.4" cy="1298.8" r="18.7"/>
		<circle class="st0" cx="591.7" cy="1570.2" r="18.7"/>
		<circle class="st0" cx="1558.8" cy="2070.4" r="18.7"/>
		<circle class="st0" cx="636.4" cy="1682.8" r="18.7"/>
		<circle class="st0" cx="672.9" cy="948.5" r="18.7"/>
		<circle class="st0" cx="993.6" cy="1789.3" r="18.7"/>
		<circle class="st0" cx="961.7" cy="1656.5" r="18.7"/>
		<circle class="st0" cx="1116.4" cy="426.5" r="18.7"/>
		<circle class="st0" cx="1027.4" cy="361.5" r="18.7"/>
		<circle class="st0" cx="500.2" cy="1108.5" r="18.7"/>
		<circle class="st0" cx="608.5" cy="524.6" r="18.7"/>
		<circle class="st0" cx="520.2" cy="1343.1" r="18.7"/>
		<circle class="st0" cx="1148.3" cy="779.7" r="18.7"/>
		<circle class="st0" cx="1483.7" cy="728.1" r="18.7"/>
		<circle class="st0" cx="1545.2" cy="1733.2" r="18.7"/>
		<circle class="st0" cx="1575.1" cy="1849.2" r="18.7"/>
		<circle class="st0" cx="514.7" cy="1230.8" r="18.7"/>
		<circle class="st0" cx="1581.8" cy="877.5" r="18.7"/>
		<circle class="st0" cx="1323.9" cy="2089.1" r="18.7"/>
		<circle class="st0" cx="1084.3" cy="1703.8" r="18.7"/>
		<circle class="st0" cx="1621.6" cy="1953.4" r="18.7"/>
		<circle class="st0" cx="1361.5" cy="768.4" r="18.7"/>
		<circle class="st0" cx="1078" cy="1016.8" r="18.7"/>
		<circle class="st0" cx="1376.6" cy="894.9" r="18.7"/>
		<circle class="st0" cx="1255.6" cy="833.5" r="18.7"/>
		<circle class="st0" cx="829.6" cy="1973.8" r="18.7"/>
		<circle class="st0" cx="1405.5" cy="1020.6" r="18.7"/>
		<circle class="st0" cx="1556.3" cy="1348.7" r="18.7"/>
		<circle class="st0" cx="396.2" cy="1059.7" r="18.7"/>
		<circle class="st0" cx="1207.6" cy="1437.7" r="18.7"/>
		<circle class="st0" cx="647.6" cy="638.5" r="18.7"/>
		<circle class="st0" cx="1187.5" cy="1646.2" r="18.7"/>
		<circle class="st0" cx="653.4" cy="1270.9" r="18.7"/>
		<circle class="st0" cx="1246.4" cy="701.6" r="18.7"/>
		<circle class="st0" cx="447.3" cy="1541.6" r="18.7"/>
		<circle class="st0" cx="675.5" cy="838.3" r="18.7"/>
		<circle class="st0" cx="824.5" cy="1478.8" r="18.7"/>
		<circle class="st0" cx="588.2" cy="752.8" r="18.7"/>
		<circle class="st0" cx="800.4" cy="447.2" r="18.7"/>
		<circle class="st0" cx="1083.7" cy="267.2" r="18.7"/>
		<circle class="st0" cx="610.6" cy="1154.7" r="18.7"/>
		<circle class="st0" cx="1503.8" cy="621.4" r="18.7"/>
		<circle class="st0" cx="748.1" cy="1724.7" r="18.7"/>
		<circle class="st0" cx="1502.3" cy="962.8" r="18.7"/>
		<circle class="st0" cx="722.4" cy="535.1" r="18.7"/>
		<circle class="st0" cx="983.6" cy="465.2" r="18.7"/>
		<circle class="st0" cx="1115.8" cy="1832.4" r="18.7"/>
		<circle class="st0" cx="1591" cy="533.3" r="18.7"/>
		<circle class="st0" cx="1617.1" cy="653.3" r="18.7"/>
		<circle class="st0" cx="551.6" cy="1757.6" r="18.7"/>
		<circle class="st0" cx="1332.2" cy="1439.4" r="18.7"/>
		<circle class="st0" cx="906.6" cy="403" r="18.7"/>
		<circle class="st0" cx="1207.7" cy="256.4" r="18.7"/>
		<circle class="st0" cx="1377.4" cy="1941" r="18.7"/>
		<circle class="st0" cx="754" cy="1373.7" r="18.7"/>
		<circle class="st0" cx="1342.5" cy="1800.8" r="18.7"/>
		<circle class="st0" cx="698.6" cy="425.3" r="18.7"/>
		<circle class="st0" cx="1332.3" cy="538.9" r="18.7"/>
		<circle class="st0" cx="481.1" cy="737.3" r="18.7"/>
		<circle class="st0" cx="1438.4" cy="2076" r="18.7"/>
		<circle class="st0" cx="1075.1" cy="861.1" r="18.7"/>
		<circle class="st0" cx="1448" cy="345.2" r="18.7"/>
		<circle class="st0" cx="730.2" cy="1592.6" r="18.7"/>
		<circle class="st0" cx="1411.3" cy="1554.1" r="18.7"/>
		<circle class="st0" cx="816.7" cy="340.2" r="18.7"/>
	</g>
</g>
<rect x="330" y="202.2" class="st1" width="1437.7" height="1946.5"/>
</svg>
