<?xml version="1.0" encoding="utf-8"?>
<!-- Generator: Adobe Illustrator 21.1.0, SVG Export Plug-In . SVG Version: 6.00 Build 0)  -->
<svg version="1.1" id="G" xmlns="http://www.w3.org/2000/svg" xmlns:xlink="http://www.w3.org/1999/xlink" x="0px" y="0px"
	 viewBox="0 0 3456 6912" style="enable-background:new 0 0 3456 6912;" xml:space="preserve">
<style type="text/css">
	.st0{fill:none;stroke:#FF0000;stroke-width:7.200000e-02;stroke-miterlimit:10;}
</style>
<g>
	<g>
		<circle class="st0" cx="1942.8" cy="1492.7" r="18.7"/>
		<circle class="st0" cx="869" cy="808" r="18.7"/>
		<circle class="st0" cx="2384.9" cy="1890.6" r="18.7"/>
		<circle class="st0" cx="1153.4" cy="1303.1" r="18.7"/>
		<circle class="st0" cx="1242.7" cy="417.4" r="18.7"/>
		<circle class="st0" cx="831.9" cy="1520.2" r="18.7"/>
		<circle class="st0" cx="1874.9" cy="530.3" r="18.7"/>
		<circle class="st0" cx="2090.6" cy="2380.6" r="18.7"/>
		<circle class="st0" cx="2409.8" cy="2724.9" r="18.7"/>
		<circle class="st0" cx="1999.2" cy="575" r="18.7"/>
		<circle class="st0" cx="2292.3" cy="2693.4" r="18.7"/>
		<circle class="st0" cx="1059.8" cy="2020" r="18.7"/>
		<circle class="st0" cx="1002.5" cy="881.4" r="18.7"/>
		<circle class="st0" cx="1990.8" cy="979.9" r="18.7"/>
		<circle class="st0" cx="2609.9" cy="1741.2" r="18.7"/>
		<circle class="st0" cx="1042.6" cy="1247.1" r="18.7"/>
		<circle class="st0" cx="1323.1" cy="2630" r="18.7"/>
		<circle class="st0" cx="2304.6" cy="2361.7" r="18.7"/>
		<circle class="st0" cx="1200" cy="1656.9" r="18.7"/>
		<circle class="st0" cx="1934.3" cy="2004.5" r="18.7"/>
		<circle class="st0" cx="2192" cy="2595.1" r="18.7"/>
		<circle class="st0" cx="2116.6" cy="1140.4" r="18.7"/>
		<circle class="st0" cx="1252.3" cy="1234.5" r="18.7"/>
		<circle class="st0" cx="1102.2" cy="1882.2" r="18.7"/>
		<circle class="st0" cx="2258.9" cy="2228.3" r="18.7"/>
		<circle class="st0" cx="713.8" cy="1477.6" r="18.7"/>
		<circle class="st0" cx="2628.8" cy="2620.6" r="18.7"/>
		<circle class="st0" cx="952.9" cy="1333.8" r="18.7"/>
		<circle class="st0" cx="2002" cy="1239.5" r="18.7"/>
		<circle class="st0" cx="1590.8" cy="2069.2" r="18.7"/>
		<circle class="st0" cx="1215.2" cy="1856.2" r="18.7"/>
		<circle class="st0" cx="2001.7" cy="1111.2" r="18.7"/>
		<circle class="st0" cx="826.5" cy="1391.1" r="18.7"/>
		<circle class="st0" cx="1388" cy="1724.3" r="18.7"/>
		<circle class="st0" cx="865.2" cy="2120.3" r="18.7"/>
		<circle class="st0" cx="1376.1" cy="2314.4" r="18.7"/>
		<circle class="st0" cx="1425.4" cy="603.4" r="18.7"/>
		<circle class="st0" cx="849" cy="1646.5" r="18.7"/>
		<circle class="st0" cx="1057.1" cy="1380.6" r="18.7"/>
		<circle class="st0" cx="1326.7" cy="514.9" r="18.7"/>
		<circle class="st0" cx="2121.5" cy="2265.1" r="18.7"/>
		<circle class="st0" cx="888.8" cy="1892.4" r="18.7"/>
		<circle class="st0" cx="2719.1" cy="1982.6" r="18.7"/>
		<circle class="st0" cx="1550.4" cy="1931.7" r="18.7"/>
		<circle class="st0" cx="2280.3" cy="1959" r="18.7"/>
		<circle class="st0" cx="1927.8" cy="2533.4" r="18.7"/>
		<circle class="st0" cx="726.7" cy="1603.7" r="18.7"/>
		<circle class="st0" cx="1924.2" cy="334.9" r="18.7"/>
		<circle class="st0" cx="1185.8" cy="1547.9" r="18.7"/>
		<circle class="st0" cx="1568.1" cy="2432.3" r="18.7"/>
		<circle class="st0" cx="2255.3" cy="846.6" r="18.7"/>
		<circle class="st0" cx="1251.9" cy="992.3" r="18.7"/>
		<circle class="st0" cx="1736.5" cy="916.8" r="18.7"/>
		<circle class="st0" cx="1981.9" cy="2322.5" r="18.7"/>
		<circle class="st0" cx="781.9" cy="1271.2" r="18.7"/>
		<circle class="st0" cx="2338.2" cy="1059.9" r="18.7"/>
		<circle class="st0" cx="813.9" cy="1992.3" r="18.7"/>
		<circle class="st0" cx="2170.1" cy="2711" r="18.7"/>
		<circle class="st0" cx="997.4" cy="2134.8" r="18.7"/>
		<circle class="st0" cx="1497.7" cy="2310.2" r="18.7"/>
		<circle class="st0" cx="1479.3" cy="2060.8" r="18.7"/>
		<circle class="st0" cx="2423.3" cy="2383.2" r="18.7"/>
		<circle class="st0" cx="2222.5" cy="555.1" r="18.7"/>
		<circle class="st0" cx="2277.8" cy="1820.9" r="18.7"/>
		<circle class="st0" cx="2611.4" cy="2874" r="18.7"/>
		<circle class="st0" cx="1060.1" cy="2429.8" r="18.7"/>
		<circle class="st0" cx="1202.2" cy="795.4" r="18.7"/>
		<circle class="st0" cx="1872.8" cy="1179.4" r="18.7"/>
		<circle class="st0" cx="1533.4" cy="239.5" r="18.7"/>
		<circle class="st0" cx="1173.6" cy="1987" r="18.7"/>
		<circle class="st0" cx="881.4" cy="556.5" r="18.7"/>
		<circle class="st0" cx="993.8" cy="2337.1" r="18.7"/>
		<circle class="st0" cx="1851.4" cy="2107.5" r="18.7"/>
		<circle class="st0" cx="2172.9" cy="1758.1" r="18.7"/>
		<circle class="st0" cx="996.7" cy="1804.8" r="18.7"/>
		<circle class="st0" cx="1643.6" cy="2671" r="18.7"/>
		<circle class="st0" cx="2471.5" cy="1567.6" r="18.7"/>
		<circle class="st0" cx="1846.5" cy="946" r="18.7"/>
		<circle class="st0" cx="2590.4" cy="2510.9" r="18.7"/>
		<circle class="st0" cx="2382.4" cy="2266" r="18.7"/>
		<circle class="st0" cx="1141.3" cy="1040.1" r="18.7"/>
		<circle class="st0" cx="2685.4" cy="2708.5" r="18.7"/>
		<circle class="st0" cx="953.7" cy="1572.4" r="18.7"/>
		<circle class="st0" cx="1150" cy="2496.8" r="18.7"/>
		<circle class="st0" cx="1289.1" cy="637.2" r="18.7"/>
		<circle class="st0" cx="2700.8" cy="1667.1" r="18.7"/>
		<circle class="st0" cx="927" cy="2234.6" r="18.7"/>
		<circle class="st0" cx="1187.5" cy="2223.8" r="18.7"/>
		<circle class="st0" cx="2231.8" cy="2806.5" r="18.7"/>
		<circle class="st0" cx="691.3" cy="1225.7" r="18.7"/>
		<circle class="st0" cx="2155.3" cy="2150" r="18.7"/>
		<circle class="st0" cx="815" cy="669.4" r="18.7"/>
		<circle class="st0" cx="1799.1" cy="2012.3" r="18.7"/>
		<circle class="st0" cx="2099.5" cy="2813.8" r="18.7"/>
		<circle class="st0" cx="1835.8" cy="414.5" r="18.7"/>
		<circle class="st0" cx="1844.6" cy="1579.8" r="18.7"/>
		<circle class="st0" cx="748.3" cy="889.8" r="18.7"/>
		<circle class="st0" cx="2165.1" cy="2017.1" r="18.7"/>
		<circle class="st0" cx="2292" cy="2570" r="18.7"/>
		<circle class="st0" cx="1094.4" cy="794.9" r="18.7"/>
		<circle class="st0" cx="2487.2" cy="2187" r="18.7"/>
		<circle class="st0" cx="1531.8" cy="2678.1" r="18.7"/>
		<circle class="st0" cx="809.1" cy="1019.2" r="18.7"/>
		<circle class="st0" cx="1067.9" cy="2246.1" r="18.7"/>
		<circle class="st0" cx="2066.4" cy="1532.4" r="18.7"/>
		<circle class="st0" cx="2397.9" cy="2606.8" r="18.7"/>
		<circle class="st0" cx="2705.6" cy="1821.5" r="18.7"/>
		<circle class="st0" cx="2513.3" cy="2598" r="18.7"/>
		<circle class="st0" cx="2295.6" cy="655.7" r="18.7"/>
		<circle class="st0" cx="2264.7" cy="1186.1" r="18.7"/>
		<circle class="st0" cx="1714.9" cy="2091.3" r="18.7"/>
		<circle class="st0" cx="1781.7" cy="2192.6" r="18.7"/>
		<circle class="st0" cx="2359.9" cy="925.8" r="18.7"/>
		<circle class="st0" cx="2734" cy="2914.8" r="18.7"/>
		<circle class="st0" cx="1703.3" cy="2398.5" r="18.7"/>
		<circle class="st0" cx="1427" cy="2657.6" r="18.7"/>
		<circle class="st0" cx="1894.4" cy="1058" r="18.7"/>
		<circle class="st0" cx="1595.6" cy="340" r="18.7"/>
		<circle class="st0" cx="1960.4" cy="459.9" r="18.7"/>
		<circle class="st0" cx="2143" cy="1250.6" r="18.7"/>
		<circle class="st0" cx="1957.4" cy="2122.3" r="18.7"/>
		<circle class="st0" cx="1466.1" cy="1832.6" r="18.7"/>
		<circle class="st0" cx="2329.8" cy="1566.7" r="18.7"/>
		<circle class="st0" cx="887.4" cy="927.9" r="18.7"/>
		<circle class="st0" cx="2084.8" cy="529.1" r="18.7"/>
		<circle class="st0" cx="1937.6" cy="878.9" r="18.7"/>
		<circle class="st0" cx="1896" cy="2234" r="18.7"/>
		<circle class="st0" cx="2132.9" cy="640.9" r="18.7"/>
		<circle class="st0" cx="1144.3" cy="1173.4" r="18.7"/>
		<circle class="st0" cx="1823.6" cy="1441.4" r="18.7"/>
		<circle class="st0" cx="1686.7" cy="2514.3" r="18.7"/>
		<circle class="st0" cx="1425.3" cy="2189.6" r="18.7"/>
		<circle class="st0" cx="1381.3" cy="693.1" r="18.7"/>
		<circle class="st0" cx="1804.5" cy="286.5" r="18.7"/>
		<circle class="st0" cx="2144.4" cy="456.9" r="18.7"/>
		<circle class="st0" cx="1727.7" cy="363.4" r="18.7"/>
		<circle class="st0" cx="941.7" cy="1451.2" r="18.7"/>
		<circle class="st0" cx="702.8" cy="995.6" r="18.7"/>
		<circle class="st0" cx="699.9" cy="1356.6" r="18.7"/>
		<circle class="st0" cx="1652.8" cy="2190.6" r="18.7"/>
		<circle class="st0" cx="1666.3" cy="1982" r="18.7"/>
		<circle class="st0" cx="1740" cy="2628.1" r="18.7"/>
		<circle class="st0" cx="870.8" cy="1769.4" r="18.7"/>
		<circle class="st0" cx="2725.7" cy="1532.5" r="18.7"/>
		<circle class="st0" cx="1635.4" cy="535.4" r="18.7"/>
		<circle class="st0" cx="2490.2" cy="1943.9" r="18.7"/>
		<circle class="st0" cx="2596.2" cy="2768.4" r="18.7"/>
		<circle class="st0" cx="933.4" cy="2022.7" r="18.7"/>
		<circle class="st0" cx="2511.3" cy="1683.6" r="18.7"/>
		<circle class="st0" cx="2058.7" cy="2072.1" r="18.7"/>
		<circle class="st0" cx="1430" cy="2421.2" r="18.7"/>
		<circle class="st0" cx="2203.4" cy="1556.1" r="18.7"/>
		<circle class="st0" cx="1239.7" cy="2092.9" r="18.7"/>
		<circle class="st0" cx="2500.4" cy="1815.2" r="18.7"/>
		<circle class="st0" cx="1481.4" cy="2539.4" r="18.7"/>
		<circle class="st0" cx="2600.3" cy="1574.3" r="18.7"/>
		<circle class="st0" cx="1614.1" cy="2309.5" r="18.7"/>
		<circle class="st0" cx="2597.2" cy="1996.2" r="18.7"/>
		<circle class="st0" cx="1965.4" cy="1623.2" r="18.7"/>
		<circle class="st0" cx="1061.8" cy="1503.8" r="18.7"/>
		<circle class="st0" cx="2372.1" cy="2146.5" r="18.7"/>
		<circle class="st0" cx="1308.4" cy="2197.5" r="18.7"/>
		<circle class="st0" cx="1265.8" cy="1361.5" r="18.7"/>
		<circle class="st0" cx="1432.5" cy="474.3" r="18.7"/>
		<circle class="st0" cx="2105.6" cy="1004.3" r="18.7"/>
		<circle class="st0" cx="1419.9" cy="1951.8" r="18.7"/>
		<circle class="st0" cx="774.4" cy="1860" r="18.7"/>
		<circle class="st0" cx="2266.6" cy="2091.1" r="18.7"/>
		<circle class="st0" cx="2516.5" cy="2703.8" r="18.7"/>
		<circle class="st0" cx="762.3" cy="776.4" r="18.7"/>
		<circle class="st0" cx="1836.5" cy="2591.3" r="18.7"/>
		<circle class="st0" cx="2342.2" cy="2474.9" r="18.7"/>
		<circle class="st0" cx="1538.6" cy="2186.5" r="18.7"/>
		<circle class="st0" cx="1099.8" cy="568.9" r="18.7"/>
		<circle class="st0" cx="1277.6" cy="2434.2" r="18.7"/>
		<circle class="st0" cx="923.6" cy="679" r="18.7"/>
		<circle class="st0" cx="977.8" cy="462.7" r="18.7"/>
		<circle class="st0" cx="944.8" cy="1175.4" r="18.7"/>
		<circle class="st0" cx="2348.8" cy="781.9" r="18.7"/>
		<circle class="st0" cx="923.9" cy="1054" r="18.7"/>
		<circle class="st0" cx="1290.5" cy="1488.1" r="18.7"/>
		<circle class="st0" cx="1524.2" cy="566.3" r="18.7"/>
		<circle class="st0" cx="1310.6" cy="771.3" r="18.7"/>
		<circle class="st0" cx="747.9" cy="1731" r="18.7"/>
		<circle class="st0" cx="2082.9" cy="1832.2" r="18.7"/>
		<circle class="st0" cx="2384" cy="2023.9" r="18.7"/>
		<circle class="st0" cx="1756.3" cy="510.3" r="18.7"/>
		<circle class="st0" cx="2045.6" cy="1947.2" r="18.7"/>
		<circle class="st0" cx="1168.8" cy="1430.6" r="18.7"/>
		<circle class="st0" cx="2220" cy="953.6" r="18.7"/>
		<circle class="st0" cx="1733" cy="2286.6" r="18.7"/>
		<circle class="st0" cx="1264.8" cy="1745" r="18.7"/>
		<circle class="st0" cx="2130.3" cy="1638.6" r="18.7"/>
		<circle class="st0" cx="2545.4" cy="2406.4" r="18.7"/>
		<circle class="st0" cx="1122" cy="2121.9" r="18.7"/>
		<circle class="st0" cx="821" cy="1146.1" r="18.7"/>
		<circle class="st0" cx="1293" cy="1965.3" r="18.7"/>
		<circle class="st0" cx="1950" cy="779.7" r="18.7"/>
		<circle class="st0" cx="1713.4" cy="1457.3" r="18.7"/>
		<circle class="st0" cx="2076.4" cy="867.3" r="18.7"/>
		<circle class="st0" cx="880.3" cy="1262.7" r="18.7"/>
		<circle class="st0" cx="1212.2" cy="545.4" r="18.7"/>
		<circle class="st0" cx="2176" cy="1896.1" r="18.7"/>
		<circle class="st0" cx="1661.6" cy="436.7" r="18.7"/>
		<circle class="st0" cx="1354" cy="377.9" r="18.7"/>
		<circle class="st0" cx="2039.6" cy="391.5" r="18.7"/>
		<circle class="st0" cx="2461.2" cy="2497" r="18.7"/>
		<circle class="st0" cx="2353.3" cy="2818.7" r="18.7"/>
		<circle class="st0" cx="1139.8" cy="912.6" r="18.7"/>
		<circle class="st0" cx="1263.3" cy="2317" r="18.7"/>
		<circle class="st0" cx="1691.8" cy="1348.9" r="18.7"/>
		<circle class="st0" cx="1811.1" cy="803.9" r="18.7"/>
		<circle class="st0" cx="1169.1" cy="321.6" r="18.7"/>
		<circle class="st0" cx="1150.6" cy="2357.2" r="18.7"/>
		<circle class="st0" cx="1671" cy="253.2" r="18.7"/>
		<circle class="st0" cx="1722" cy="1564.9" r="18.7"/>
		<circle class="st0" cx="1801.2" cy="2476.6" r="18.7"/>
		<circle class="st0" cx="2213.6" cy="734.8" r="18.7"/>
		<circle class="st0" cx="1275.8" cy="884.7" r="18.7"/>
		<circle class="st0" cx="1774.8" cy="1062.2" r="18.7"/>
		<circle class="st0" cx="1026.4" cy="988.3" r="18.7"/>
		<circle class="st0" cx="2216.9" cy="1074.4" r="18.7"/>
		<circle class="st0" cx="1178.8" cy="678.2" r="18.7"/>
		<circle class="st0" cx="2050" cy="1709.6" r="18.7"/>
		<circle class="st0" cx="2508.2" cy="2297.9" r="18.7"/>
		<circle class="st0" cx="1078" cy="1627" r="18.7"/>
		<circle class="st0" cx="1342.3" cy="1846.9" r="18.7"/>
		<circle class="st0" cx="2483.7" cy="2835.1" r="18.7"/>
		<circle class="st0" cx="1281.5" cy="278.1" r="18.7"/>
		<circle class="st0" cx="1362" cy="2522.6" r="18.7"/>
		<circle class="st0" cx="1323.7" cy="1611.6" r="18.7"/>
		<circle class="st0" cx="1360.4" cy="2074.4" r="18.7"/>
		<circle class="st0" cx="2015.2" cy="2459.2" r="18.7"/>
		<circle class="st0" cx="1471.7" cy="350.5" r="18.7"/>
		<circle class="st0" cx="1117.1" cy="1753.3" r="18.7"/>
		<circle class="st0" cx="1061.1" cy="375.7" r="18.7"/>
		<circle class="st0" cx="1232.9" cy="2566.2" r="18.7"/>
		<circle class="st0" cx="1590.6" cy="2565.1" r="18.7"/>
		<circle class="st0" cx="1832.2" cy="2341" r="18.7"/>
		<circle class="st0" cx="2610" cy="1881" r="18.7"/>
		<circle class="st0" cx="996.5" cy="1922.8" r="18.7"/>
		<circle class="st0" cx="1403" cy="249.8" r="18.7"/>
		<circle class="st0" cx="1041.6" cy="1111.6" r="18.7"/>
		<circle class="st0" cx="1908" cy="2419.1" r="18.7"/>
		<circle class="st0" cx="976.7" cy="1692.2" r="18.7"/>
		<circle class="st0" cx="991.7" cy="578.5" r="18.7"/>
		<circle class="st0" cx="1055.4" cy="681.1" r="18.7"/>
		<circle class="st0" cx="2200.7" cy="2344.8" r="18.7"/>
		<circle class="st0" cx="1248.9" cy="1110.8" r="18.7"/>
		<circle class="st0" cx="978.4" cy="774.2" r="18.7"/>
		<circle class="st0" cx="2391.3" cy="1657.9" r="18.7"/>
		<circle class="st0" cx="2497.6" cy="2072.9" r="18.7"/>
		<circle class="st0" cx="2208.2" cy="2468.5" r="18.7"/>
		<circle class="st0" cx="2386.6" cy="1765.4" r="18.7"/>
		<circle class="st0" cx="2266" cy="1680.8" r="18.7"/>
		<circle class="st0" cx="2028.5" cy="2205.2" r="18.7"/>
		<circle class="st0" cx="703.6" cy="1111.5" r="18.7"/>
		<circle class="st0" cx="1544.7" cy="448.5" r="18.7"/>
		<circle class="st0" cx="1124.7" cy="458" r="18.7"/>
		<circle class="st0" cx="2723.3" cy="2808.8" r="18.7"/>
	</g>
</g>
<rect x="637" y="183" class="st0" width="2182" height="2810.9"/>
</svg>
