<?xml version="1.0" encoding="utf-8"?>
<!-- Generator: Adobe Illustrator 21.1.0, SVG Export Plug-In . SVG Version: 6.00 Build 0)  -->
<svg version="1.1" id="K" xmlns="http://www.w3.org/2000/svg" xmlns:xlink="http://www.w3.org/1999/xlink" x="0px" y="0px"
	 viewBox="0 0 3456 6912" style="enable-background:new 0 0 3456 6912;" xml:space="preserve">
<style type="text/css">
	.st0{fill:none;stroke:#FF0000;stroke-width:7.200000e-02;stroke-miterlimit:10;}
	.st1{fill:#FFFFFF;stroke:#000000;stroke-miterlimit:10;}
</style>
<g>
	<g>
		<circle class="st0" cx="1502.3" cy="2369.3" r="18.7"/>
		<circle class="st0" cx="1664.1" cy="1674.8" r="18.7"/>
		<circle class="st0" cx="1278.8" cy="303" r="18.7"/>
		<circle class="st0" cx="801.6" cy="981" r="18.7"/>
		<circle class="st0" cx="1295" cy="1688.1" r="18.7"/>
		<circle class="st0" cx="1067" cy="1390" r="18.7"/>
		<circle class="st0" cx="330.9" cy="369.3" r="18.7"/>
		<circle class="st0" cx="1386.8" cy="319.1" r="18.7"/>
		<circle class="st0" cx="744.2" cy="1363.2" r="18.7"/>
		<circle class="st0" cx="674" cy="1168.1" r="18.7"/>
		<circle class="st0" cx="1233.1" cy="1877.2" r="18.7"/>
		<circle class="st0" cx="1506.1" cy="536.6" r="18.7"/>
		<circle class="st0" cx="576.1" cy="1124.4" r="18.7"/>
		<circle class="st0" cx="1405.4" cy="1000.5" r="18.7"/>
		<circle class="st0" cx="407" cy="1831.1" r="18.7"/>
		<circle class="st0" cx="1456.6" cy="1565.2" r="18.7"/>
		<circle class="st0" cx="1608.9" cy="1572.4" r="18.7"/>
		<circle class="st0" cx="1184" cy="1257.4" r="18.7"/>
		<circle class="st0" cx="1345.5" cy="2035.8" r="18.7"/>
		<circle class="st0" cx="737.3" cy="1960.4" r="18.7"/>
		<circle class="st0" cx="382.2" cy="490.8" r="18.7"/>
		<circle class="st0" cx="1513.1" cy="2152.4" r="18.7"/>
		<circle class="st0" cx="1263.6" cy="2126.6" r="18.7"/>
		<circle class="st0" cx="615.2" cy="551.4" r="18.7"/>
		<circle class="st0" cx="601.5" cy="1394.7" r="18.7"/>
		<circle class="st0" cx="1601" cy="617.3" r="18.7"/>
		<circle class="st0" cx="560.6" cy="2078.6" r="18.7"/>
		<circle class="st0" cx="1800.2" cy="2594.7" r="18.7"/>
		<circle class="st0" cx="1150.2" cy="850" r="18.7"/>
		<circle class="st0" cx="1102.8" cy="1096.4" r="18.7"/>
		<circle class="st0" cx="1187.5" cy="623.3" r="18.7"/>
		<circle class="st0" cx="1495.2" cy="1906.6" r="18.7"/>
		<circle class="st0" cx="1308.5" cy="1046.6" r="18.7"/>
		<circle class="st0" cx="1723" cy="2233.4" r="18.7"/>
		<circle class="st0" cx="1398.4" cy="874" r="18.7"/>
		<circle class="st0" cx="1429.7" cy="2480.3" r="18.7"/>
		<circle class="st0" cx="997.7" cy="1154.9" r="18.7"/>
		<circle class="st0" cx="569.8" cy="1256.4" r="18.7"/>
		<circle class="st0" cx="778.3" cy="864.4" r="18.7"/>
		<circle class="st0" cx="766.8" cy="1226" r="18.7"/>
		<circle class="st0" cx="1586.6" cy="1785.7" r="18.7"/>
		<circle class="st0" cx="718.8" cy="1590.9" r="18.7"/>
		<circle class="st0" cx="572.8" cy="877.7" r="18.7"/>
		<circle class="st0" cx="668.5" cy="670.7" r="18.7"/>
		<circle class="st0" cx="460.1" cy="831.8" r="18.7"/>
		<circle class="st0" cx="1195.9" cy="497.8" r="18.7"/>
		<circle class="st0" cx="1210.9" cy="1760" r="18.7"/>
		<circle class="st0" cx="474.4" cy="1195.4" r="18.7"/>
		<circle class="st0" cx="336.7" cy="2085.6" r="18.7"/>
		<circle class="st0" cx="419.3" cy="606.2" r="18.7"/>
		<circle class="st0" cx="1301.4" cy="1567.1" r="18.7"/>
		<circle class="st0" cx="1283.4" cy="1299.7" r="18.7"/>
		<circle class="st0" cx="1363.3" cy="2368.2" r="18.7"/>
		<circle class="st0" cx="612.5" cy="1963" r="18.7"/>
		<circle class="st0" cx="1682.5" cy="386.6" r="18.7"/>
		<circle class="st0" cx="1640.9" cy="2398.3" r="18.7"/>
		<circle class="st0" cx="871.7" cy="2006.9" r="18.7"/>
		<circle class="st0" cx="889.9" cy="1174.9" r="18.7"/>
		<circle class="st0" cx="1309.1" cy="2251" r="18.7"/>
		<circle class="st0" cx="1462.1" cy="2030.5" r="18.7"/>
		<circle class="st0" cx="1580.7" cy="740.3" r="18.7"/>
		<circle class="st0" cx="1079.3" cy="1257.3" r="18.7"/>
		<circle class="st0" cx="1283.5" cy="924.4" r="18.7"/>
		<circle class="st0" cx="1617.3" cy="2658.2" r="18.7"/>
		<circle class="st0" cx="1729.8" cy="2704.3" r="18.7"/>
		<circle class="st0" cx="1629.6" cy="502.1" r="18.7"/>
		<circle class="st0" cx="1344" cy="1801" r="18.7"/>
		<circle class="st0" cx="659.5" cy="1716.7" r="18.7"/>
		<circle class="st0" cx="1268.9" cy="1442.1" r="18.7"/>
		<circle class="st0" cx="1150.6" cy="1505.7" r="18.7"/>
		<circle class="st0" cx="443.9" cy="718.4" r="18.7"/>
		<circle class="st0" cx="1593.3" cy="2272.7" r="18.7"/>
		<circle class="st0" cx="442.8" cy="2089.7" r="18.7"/>
		<circle class="st0" cx="983.1" cy="2192.7" r="18.7"/>
		<circle class="st0" cx="676.7" cy="2077.3" r="18.7"/>
		<circle class="st0" cx="796.6" cy="638.7" r="18.7"/>
		<circle class="st0" cx="689" cy="1047.8" r="18.7"/>
		<circle class="st0" cx="775.3" cy="432.5" r="18.7"/>
		<circle class="st0" cx="884.6" cy="398.1" r="18.7"/>
		<circle class="st0" cx="1238.5" cy="1994.4" r="18.7"/>
		<circle class="st0" cx="475.4" cy="1452.1" r="18.7"/>
		<circle class="st0" cx="906.2" cy="2118.2" r="18.7"/>
		<circle class="st0" cx="1464.6" cy="1787.1" r="18.7"/>
		<circle class="st0" cx="470.5" cy="949" r="18.7"/>
		<circle class="st0" cx="1171.3" cy="253.7" r="18.7"/>
		<circle class="st0" cx="790.2" cy="1106.4" r="18.7"/>
		<circle class="st0" cx="457.6" cy="1573.1" r="18.7"/>
		<circle class="st0" cx="1171.3" cy="739.3" r="18.7"/>
		<circle class="st0" cx="1176.3" cy="1374.9" r="18.7"/>
		<circle class="st0" cx="1079.6" cy="943.6" r="18.7"/>
		<circle class="st0" cx="1733" cy="2116.5" r="18.7"/>
		<circle class="st0" cx="541.5" cy="641.6" r="18.7"/>
		<circle class="st0" cx="972.7" cy="1290.5" r="18.7"/>
		<circle class="st0" cx="719.2" cy="1476.8" r="18.7"/>
		<circle class="st0" cx="1404.5" cy="1671.5" r="18.7"/>
		<circle class="st0" cx="769.6" cy="1692.5" r="18.7"/>
		<circle class="st0" cx="477.3" cy="1330.3" r="18.7"/>
		<circle class="st0" cx="1561.7" cy="2479.7" r="18.7"/>
		<circle class="st0" cx="670.8" cy="800.5" r="18.7"/>
		<circle class="st0" cx="1497.1" cy="664.1" r="18.7"/>
		<circle class="st0" cx="852.8" cy="1276.9" r="18.7"/>
		<circle class="st0" cx="1615.8" cy="1905.1" r="18.7"/>
		<circle class="st0" cx="1426.2" cy="763.1" r="18.7"/>
		<circle class="st0" cx="776.2" cy="748.1" r="18.7"/>
		<circle class="st0" cx="563.3" cy="754.9" r="18.7"/>
		<circle class="st0" cx="667.8" cy="1290.7" r="18.7"/>
		<circle class="st0" cx="1560" cy="415.5" r="18.7"/>
		<circle class="st0" cx="1760.6" cy="2468.7" r="18.7"/>
		<circle class="st0" cx="1852.2" cy="2716.8" r="18.7"/>
		<circle class="st0" cx="1389.8" cy="2149.4" r="18.7"/>
		<circle class="st0" cx="1543.9" cy="841.3" r="18.7"/>
		<circle class="st0" cx="660.4" cy="1843.3" r="18.7"/>
		<circle class="st0" cx="1531.4" cy="1670.1" r="18.7"/>
		<circle class="st0" cx="1626.2" cy="300" r="18.7"/>
		<circle class="st0" cx="1447.4" cy="2261.8" r="18.7"/>
		<circle class="st0" cx="724.9" cy="551.5" r="18.7"/>
		<circle class="st0" cx="1367.5" cy="1918.5" r="18.7"/>
		<circle class="st0" cx="479.2" cy="1971.9" r="18.7"/>
		<circle class="st0" cx="433.6" cy="1698.9" r="18.7"/>
		<circle class="st0" cx="593.9" cy="1519.5" r="18.7"/>
		<circle class="st0" cx="788.3" cy="2095.1" r="18.7"/>
		<circle class="st0" cx="1741.4" cy="2344.1" r="18.7"/>
		<circle class="st0" cx="1381" cy="1476" r="18.7"/>
		<circle class="st0" cx="1706" cy="1783.9" r="18.7"/>
		<circle class="st0" cx="579.7" cy="1001.2" r="18.7"/>
		<circle class="st0" cx="832.9" cy="1899.1" r="18.7"/>
		<circle class="st0" cx="1187.4" cy="1626.3" r="18.7"/>
		<circle class="st0" cx="1626.2" cy="2144.1" r="18.7"/>
		<circle class="st0" cx="1583.9" cy="2025.8" r="18.7"/>
		<circle class="st0" cx="835.9" cy="521.9" r="18.7"/>
		<circle class="st0" cx="1182.9" cy="980.1" r="18.7"/>
		<circle class="st0" cx="448.6" cy="409.7" r="18.7"/>
		<circle class="st0" cx="475.1" cy="1068.5" r="18.7"/>
		<circle class="st0" cx="1285.1" cy="809.6" r="18.7"/>
		<circle class="st0" cx="900.4" cy="1052.2" r="18.7"/>
		<circle class="st0" cx="1376.8" cy="1345.9" r="18.7"/>
		<circle class="st0" cx="1296.4" cy="698" r="18.7"/>
		<circle class="st0" cx="1728.9" cy="1895.1" r="18.7"/>
		<circle class="st0" cx="1962.2" cy="2750.8" r="18.7"/>
		<circle class="st0" cx="1714.1" cy="2007.2" r="18.7"/>
		<circle class="st0" cx="362.3" cy="1959.1" r="18.7"/>
		<circle class="st0" cx="1544.9" cy="1483.2" r="18.7"/>
		<circle class="st0" cx="561.3" cy="432.7" r="18.7"/>
		<circle class="st0" cx="1516.8" cy="2583.2" r="18.7"/>
		<circle class="st0" cx="1669.5" cy="2551.1" r="18.7"/>
		<circle class="st0" cx="1390.9" cy="521.7" r="18.7"/>
		<circle class="st0" cx="1471" cy="1404.6" r="18.7"/>
		<circle class="st0" cx="499" cy="525.4" r="18.7"/>
		<circle class="st0" cx="1504.7" cy="314.3" r="18.7"/>
		<circle class="st0" cx="529.4" cy="1869.1" r="18.7"/>
		<circle class="st0" cx="540.1" cy="1758.1" r="18.7"/>
		<circle class="st0" cx="1758.5" cy="270.4" r="18.7"/>
		<circle class="st0" cx="681.9" cy="928.9" r="18.7"/>
		<circle class="st0" cx="1394" cy="636.7" r="18.7"/>
		<circle class="st0" cx="668.6" cy="440.8" r="18.7"/>
		<circle class="st0" cx="1192.8" cy="379.3" r="18.7"/>
		<circle class="st0" cx="781.2" cy="1804" r="18.7"/>
		<circle class="st0" cx="569.9" cy="1634.9" r="18.7"/>
		<circle class="st0" cx="1209.2" cy="1088.8" r="18.7"/>
		<circle class="st0" cx="1289.8" cy="568.2" r="18.7"/>
		<circle class="st0" cx="1440.7" cy="422.5" r="18.7"/>
		<circle class="st0" cx="1499" cy="938.7" r="18.7"/>
		<circle class="st0" cx="1007.4" cy="1026.8" r="18.7"/>
		<circle class="st0" cx="1308.6" cy="430.4" r="18.7"/>
	</g>
</g>
<rect x="227.6" y="146.7" class="st1" width="1874.7" height="2650.2"/>
</svg>
