<?xml version="1.0" encoding="utf-8"?>
<!-- Generator: Adobe Illustrator 21.1.0, SVG Export Plug-In . SVG Version: 6.00 Build 0)  -->
<svg version="1.1" xmlns="http://www.w3.org/2000/svg" xmlns:xlink="http://www.w3.org/1999/xlink" x="0px" y="0px"
	 viewBox="0 0 3456 6912" style="enable-background:new 0 0 3456 6912;" xml:space="preserve">
<style type="text/css">
	.st0{fill:#FFFFFF;stroke:#000000;stroke-miterlimit:10;}
	.st1{fill:none;stroke:#FF0000;stroke-width:7.200000e-02;stroke-miterlimit:10;}
</style>
<rect x="764.4" y="322.3" class="st0" width="1584.1" height="2288.1"/>
	<g>
		<g>
			<circle class="st1" cx="1604.1" cy="2112.8" r="18.7"/>
			<circle class="st1" cx="1366.5" cy="1578.8" r="18.7"/>
			<circle class="st1" cx="977.5" cy="789.1" r="18.7"/>
			<circle class="st1" cx="1051.3" cy="1856.2" r="18.7"/>
			<circle class="st1" cx="1464" cy="1823.4" r="18.7"/>
			<circle class="st1" cx="1061.7" cy="1727.8" r="18.7"/>
			<circle class="st1" cx="1218.5" cy="1560.3" r="18.7"/>
			<circle class="st1" cx="1354.8" cy="1221.3" r="18.7"/>
			<circle class="st1" cx="1007.2" cy="916.5" r="18.7"/>
			<circle class="st1" cx="1531.8" cy="573.6" r="18.7"/>
			<circle class="st1" cx="954.5" cy="2294.9" r="18.7"/>
			<circle class="st1" cx="1050.6" cy="1970" r="18.7"/>
			<circle class="st1" cx="916.4" cy="2411.5" r="18.7"/>
			<circle class="st1" cx="1483.1" cy="2056.6" r="18.7"/>
			<circle class="st1" cx="1406.4" cy="611.8" r="18.7"/>
			<circle class="st1" cx="2016.9" cy="2385.7" r="18.7"/>
			<circle class="st1" cx="1501.9" cy="2198" r="18.7"/>
			<circle class="st1" cx="1138" cy="955" r="18.7"/>
			<circle class="st1" cx="1147.4" cy="1795.9" r="18.7"/>
			<circle class="st1" cx="2266.5" cy="1548.5" r="18.7"/>
			<circle class="st1" cx="908.8" cy="2533.9" r="18.7"/>
			<circle class="st1" cx="1537.6" cy="2327.9" r="18.7"/>
			<circle class="st1" cx="2160.9" cy="1611.2" r="18.7"/>
			<circle class="st1" cx="1408.1" cy="1943.1" r="18.7"/>
			<circle class="st1" cx="2091.2" cy="2506.9" r="18.7"/>
			<circle class="st1" cx="1165.4" cy="1913.1" r="18.7"/>
			<circle class="st1" cx="1250.5" cy="1804.1" r="18.7"/>
			<circle class="st1" cx="1069.5" cy="1275.7" r="18.7"/>
			<circle class="st1" cx="948.7" cy="666.4" r="18.7"/>
			<circle class="st1" cx="1213.1" cy="735" r="18.7"/>
			<circle class="st1" cx="1956.9" cy="2026.1" r="18.7"/>
			<circle class="st1" cx="2183.5" cy="1958.4" r="18.7"/>
			<circle class="st1" cx="2185.2" cy="2199.5" r="18.7"/>
			<circle class="st1" cx="2122.5" cy="1734.9" r="18.7"/>
			<circle class="st1" cx="1289" cy="2352.6" r="18.7"/>
			<circle class="st1" cx="2043.2" cy="1639.6" r="18.7"/>
			<circle class="st1" cx="1296.9" cy="1682.4" r="18.7"/>
			<circle class="st1" cx="1341.6" cy="738.4" r="18.7"/>
			<circle class="st1" cx="1608.8" cy="2450" r="18.7"/>
			<circle class="st1" cx="1619.5" cy="2231.3" r="18.7"/>
			<circle class="st1" cx="1160.1" cy="2362.8" r="18.7"/>
			<circle class="st1" cx="1377.2" cy="1461.7" r="18.7"/>
			<circle class="st1" cx="1170.5" cy="1430" r="18.7"/>
			<circle class="st1" cx="1500" cy="2444.6" r="18.7"/>
			<circle class="st1" cx="1427.2" cy="832.8" r="18.7"/>
			<circle class="st1" cx="1953" cy="2145.8" r="18.7"/>
			<circle class="st1" cx="1201.5" cy="2246.7" r="18.7"/>
			<circle class="st1" cx="1728.4" cy="2148.4" r="18.7"/>
			<circle class="st1" cx="1338.9" cy="2043.5" r="18.7"/>
			<circle class="st1" cx="1179.3" cy="2031.6" r="18.7"/>
			<circle class="st1" cx="1176.4" cy="1207.7" r="18.7"/>
			<circle class="st1" cx="1792.7" cy="2353" r="18.7"/>
			<circle class="st1" cx="1308.7" cy="866.7" r="18.7"/>
			<circle class="st1" cx="1358.2" cy="1338.2" r="18.7"/>
			<circle class="st1" cx="851.1" cy="440.6" r="18.7"/>
			<circle class="st1" cx="1109.1" cy="2489.3" r="18.7"/>
			<circle class="st1" cx="1852.2" cy="1976.6" r="18.7"/>
			<circle class="st1" cx="2068.1" cy="1844.3" r="18.7"/>
			<circle class="st1" cx="1266.9" cy="1134.3" r="18.7"/>
			<circle class="st1" cx="1945.5" cy="1901.9" r="18.7"/>
			<circle class="st1" cx="1376.6" cy="1088.3" r="18.7"/>
			<circle class="st1" cx="2205.5" cy="2314.9" r="18.7"/>
			<circle class="st1" cx="1281.1" cy="1936.9" r="18.7"/>
			<circle class="st1" cx="1076.2" cy="1504.1" r="18.7"/>
			<circle class="st1" cx="2179.2" cy="2080.9" r="18.7"/>
			<circle class="st1" cx="1400.2" cy="2437.8" r="18.7"/>
			<circle class="st1" cx="1395.7" cy="2152.4" r="18.7"/>
			<circle class="st1" cx="1038.9" cy="2385.1" r="18.7"/>
			<circle class="st1" cx="1203.7" cy="854.1" r="18.7"/>
			<circle class="st1" cx="1181.9" cy="1679.9" r="18.7"/>
			<circle class="st1" cx="1662.4" cy="2348.8" r="18.7"/>
			<circle class="st1" cx="1080.4" cy="709.6" r="18.7"/>
			<circle class="st1" cx="1040.9" cy="585.3" r="18.7"/>
			<circle class="st1" cx="2005.5" cy="1741.4" r="18.7"/>
			<circle class="st1" cx="991.8" cy="2179.5" r="18.7"/>
			<circle class="st1" cx="1276.6" cy="1447.1" r="18.7"/>
			<circle class="st1" cx="1850.6" cy="2228.2" r="18.7"/>
			<circle class="st1" cx="1306.3" cy="2468.8" r="18.7"/>
			<circle class="st1" cx="1964.9" cy="2485.5" r="18.7"/>
			<circle class="st1" cx="1917.3" cy="1650.1" r="18.7"/>
			<circle class="st1" cx="2126.9" cy="2404.5" r="18.7"/>
			<circle class="st1" cx="1048.7" cy="1157.5" r="18.7"/>
			<circle class="st1" cx="1208.1" cy="2470.4" r="18.7"/>
			<circle class="st1" cx="2066.2" cy="1953.7" r="18.7"/>
			<circle class="st1" cx="1077.8" cy="1611.6" r="18.7"/>
			<circle class="st1" cx="2069.1" cy="2178.2" r="18.7"/>
			<circle class="st1" cx="1225.4" cy="1312.9" r="18.7"/>
			<circle class="st1" cx="1265.3" cy="996.3" r="18.7"/>
			<circle class="st1" cx="1418.7" cy="2307.1" r="18.7"/>
			<circle class="st1" cx="2090.3" cy="2290.3" r="18.7"/>
			<circle class="st1" cx="2196.2" cy="1834.1" r="18.7"/>
			<circle class="st1" cx="1971" cy="2264.1" r="18.7"/>
			<circle class="st1" cx="1078.8" cy="2264.7" r="18.7"/>
			<circle class="st1" cx="1923.7" cy="1796.1" r="18.7"/>
			<circle class="st1" cx="1735.5" cy="2257.5" r="18.7"/>
			<circle class="st1" cx="1031.4" cy="1036.1" r="18.7"/>
			<circle class="st1" cx="1155" cy="1078.1" r="18.7"/>
			<circle class="st1" cx="1026.3" cy="2070.9" r="18.7"/>
			<circle class="st1" cx="1526.7" cy="1928.3" r="18.7"/>
			<circle class="st1" cx="2229.5" cy="2430.7" r="18.7"/>
			<circle class="st1" cx="1093.4" cy="829.5" r="18.7"/>
			<circle class="st1" cx="1285.5" cy="622.5" r="18.7"/>
			<circle class="st1" cx="1256" cy="2129.4" r="18.7"/>
			<circle class="st1" cx="1007.3" cy="2507" r="18.7"/>
			<circle class="st1" cx="1470.4" cy="706.4" r="18.7"/>
			<circle class="st1" cx="1613.4" cy="1999.9" r="18.7"/>
			<circle class="st1" cx="1903.8" cy="2360" r="18.7"/>
			<circle class="st1" cx="922.8" cy="540" r="18.7"/>
			<circle class="st1" cx="1731" cy="2031.8" r="18.7"/>
			<circle class="st1" cx="1841.9" cy="2098.4" r="18.7"/>
			<circle class="st1" cx="1068.4" cy="1383.1" r="18.7"/>
			<circle class="st1" cx="2228.9" cy="1697.5" r="18.7"/>
			<circle class="st1" cx="1353.4" cy="1822.2" r="18.7"/>
			<circle class="st1" cx="1124.3" cy="2144.5" r="18.7"/>
			<circle class="st1" cx="2066.5" cy="2066.5" r="18.7"/>
			<circle class="st1" cx="1411.9" cy="1703.4" r="18.7"/>
			<circle class="st1" cx="1845.5" cy="2468.4" r="18.7"/>
			<circle class="st1" cx="1726.8" cy="2457.2" r="18.7"/>
			<circle class="st1" cx="1163.7" cy="617.1" r="18.7"/>
			<circle class="st1" cx="1393.3" cy="961.3" r="18.7"/>
			<circle class="st1" cx="2219" cy="2537" r="18.7"/>
			<circle class="st1" cx="1320.2" cy="2236.9" r="18.7"/>
		</g>
	</g>
</svg>
