<?xml version="1.0" encoding="utf-8"?>
<!-- Generator: Adobe Illustrator 21.1.0, SVG Export Plug-In . SVG Version: 6.00 Build 0)  -->
<svg version="1.1" xmlns="http://www.w3.org/2000/svg" xmlns:xlink="http://www.w3.org/1999/xlink" x="0px" y="0px"
	 viewBox="0 0 3456 6912" style="enable-background:new 0 0 3456 6912;" xml:space="preserve">
<style type="text/css">
	.st0{fill:#FFFFFF;stroke:#000000;stroke-miterlimit:10;}
	.st1{fill:none;stroke:#FF0000;stroke-width:0.5;stroke-miterlimit:10;}
</style>
	<rect x="53" y="92.6" class="st0" width="3349.9" height="4310.7"/>
	<g>
		<g>
			<circle class="st1" cx="3041.1" cy="2247.9" r="18.7"/>
			<circle class="st1" cx="2720.1" cy="521.8" r="18.7"/>
			<circle class="st1" cx="1900" cy="1364.7" r="18.7"/>
			<circle class="st1" cx="3087.7" cy="3542.4" r="18.7"/>
			<circle class="st1" cx="2225.1" cy="429.2" r="18.7"/>
			<circle class="st1" cx="1954.5" cy="2879.2" r="18.7"/>
			<circle class="st1" cx="2060.8" cy="4078.2" r="18.7"/>
			<circle class="st1" cx="3028.4" cy="684.5" r="18.7"/>
			<circle class="st1" cx="2514.3" cy="2518.2" r="18.7"/>
			<circle class="st1" cx="2063.3" cy="1858.1" r="18.7"/>
			<circle class="st1" cx="1967.3" cy="268.1" r="18.7"/>
			<circle class="st1" cx="2880.2" cy="2067.2" r="18.7"/>
			<circle class="st1" cx="2899.2" cy="2736.1" r="18.7"/>
			<circle class="st1" cx="1707.3" cy="3641.8" r="18.7"/>
			<circle class="st1" cx="256.3" cy="1070.2" r="18.7"/>
			<circle class="st1" cx="2664.2" cy="2307.1" r="18.7"/>
			<circle class="st1" cx="2049.8" cy="1739.1" r="18.7"/>
			<circle class="st1" cx="2847.4" cy="801.6" r="18.7"/>
			<circle class="st1" cx="2536.3" cy="893.5" r="18.7"/>
			<circle class="st1" cx="956.3" cy="2405.7" r="18.7"/>
			<circle class="st1" cx="2502.2" cy="2176.8" r="18.7"/>
			<circle class="st1" cx="1541.9" cy="2490.5" r="18.7"/>
			<circle class="st1" cx="1802.1" cy="149.5" r="18.7"/>
			<circle class="st1" cx="951.2" cy="393" r="18.7"/>
			<circle class="st1" cx="1847.7" cy="399.1" r="18.7"/>
			<circle class="st1" cx="2324.2" cy="1881" r="18.7"/>
			<circle class="st1" cx="3082.3" cy="1005.3" r="18.7"/>
			<circle class="st1" cx="2616.4" cy="1569" r="18.7"/>
			<circle class="st1" cx="516.9" cy="900.4" r="18.7"/>
			<circle class="st1" cx="1148.7" cy="1404.5" r="18.7"/>
			<circle class="st1" cx="1302.6" cy="2152.7" r="18.7"/>
			<circle class="st1" cx="2840.1" cy="477.2" r="18.7"/>
			<circle class="st1" cx="1689.7" cy="2663" r="18.7"/>
			<circle class="st1" cx="2265.2" cy="767.5" r="18.7"/>
			<circle class="st1" cx="3004.7" cy="2964.4" r="18.7"/>
			<circle class="st1" cx="1491.6" cy="1131.6" r="18.7"/>
			<circle class="st1" cx="3302" cy="3857.4" r="18.7"/>
			<circle class="st1" cx="2805.5" cy="696.2" r="18.7"/>
			<circle class="st1" cx="2396.2" cy="1774.9" r="18.7"/>
			<circle class="st1" cx="2785.1" cy="3669.6" r="18.7"/>
			<circle class="st1" cx="1703.8" cy="626.2" r="18.7"/>
			<circle class="st1" cx="1779.7" cy="2058.3" r="18.7"/>
			<circle class="st1" cx="1527.6" cy="762.7" r="18.7"/>
			<circle class="st1" cx="2442.7" cy="1915.1" r="18.7"/>
			<circle class="st1" cx="3248.9" cy="1360.5" r="18.7"/>
			<circle class="st1" cx="1584.5" cy="4192" r="18.7"/>
			<circle class="st1" cx="2497" cy="650.5" r="18.7"/>
			<circle class="st1" cx="2846.4" cy="1690.9" r="18.7"/>
			<circle class="st1" cx="1856.9" cy="275.7" r="18.7"/>
			<circle class="st1" cx="1276.3" cy="760.4" r="18.7"/>
			<circle class="st1" cx="1970.9" cy="3695.3" r="18.7"/>
			<circle class="st1" cx="1973.7" cy="2379.8" r="18.7"/>
			<circle class="st1" cx="319.5" cy="960.1" r="18.7"/>
			<circle class="st1" cx="2414.7" cy="354.6" r="18.7"/>
			<circle class="st1" cx="3150.3" cy="2194.1" r="18.7"/>
			<circle class="st1" cx="1835.6" cy="2951.5" r="18.7"/>
			<circle class="st1" cx="540.9" cy="1032.2" r="18.7"/>
			<circle class="st1" cx="2577.7" cy="1449.2" r="18.7"/>
			<circle class="st1" cx="720" cy="924.6" r="18.7"/>
			<circle class="st1" cx="1280.1" cy="1220.8" r="18.7"/>
			<circle class="st1" cx="2045.4" cy="883.1" r="18.7"/>
			<circle class="st1" cx="3119.5" cy="3714.8" r="18.7"/>
			<circle class="st1" cx="451.6" cy="1107.6" r="18.7"/>
			<circle class="st1" cx="1853.5" cy="2157.9" r="18.7"/>
			<circle class="st1" cx="1658.9" cy="2536.8" r="18.7"/>
			<circle class="st1" cx="2279.9" cy="2122.7" r="18.7"/>
			<circle class="st1" cx="2385.6" cy="3179.7" r="18.7"/>
			<circle class="st1" cx="2730" cy="3801.5" r="18.7"/>
			<circle class="st1" cx="1389.2" cy="545.3" r="18.7"/>
			<circle class="st1" cx="2728.9" cy="2484.1" r="18.7"/>
			<circle class="st1" cx="1497.8" cy="4105.7" r="18.7"/>
			<circle class="st1" cx="1542.6" cy="3974.1" r="18.7"/>
			<circle class="st1" cx="1715" cy="2780.3" r="18.7"/>
			<circle class="st1" cx="2140.9" cy="530.5" r="18.7"/>
			<circle class="st1" cx="1452.4" cy="1325.8" r="18.7"/>
			<circle class="st1" cx="2883.2" cy="2615.2" r="18.7"/>
			<circle class="st1" cx="1908" cy="2271.1" r="18.7"/>
			<circle class="st1" cx="1489.8" cy="294.1" r="18.7"/>
			<circle class="st1" cx="1618.8" cy="4066" r="18.7"/>
			<circle class="st1" cx="2307.2" cy="2649.2" r="18.7"/>
			<circle class="st1" cx="746.6" cy="532.9" r="18.7"/>
			<circle class="st1" cx="1559.6" cy="466.1" r="18.7"/>
			<circle class="st1" cx="3047.6" cy="1581.4" r="18.7"/>
			<circle class="st1" cx="1923.4" cy="845.3" r="18.7"/>
			<circle class="st1" cx="2508.4" cy="410.1" r="18.7"/>
			<circle class="st1" cx="1078.8" cy="685.9" r="18.7"/>
			<circle class="st1" cx="2294" cy="2523.8" r="18.7"/>
			<circle class="st1" cx="156" cy="1277.9" r="18.7"/>
			<circle class="st1" cx="1590.6" cy="3343.2" r="18.7"/>
			<circle class="st1" cx="2390.3" cy="2163.3" r="18.7"/>
			<circle class="st1" cx="2827.2" cy="1567.8" r="18.7"/>
			<circle class="st1" cx="580" cy="1604.2" r="18.7"/>
			<circle class="st1" cx="3150.3" cy="1665.4" r="18.7"/>
			<circle class="st1" cx="826.8" cy="877.1" r="18.7"/>
			<circle class="st1" cx="1906.4" cy="1231.7" r="18.7"/>
			<circle class="st1" cx="1908.7" cy="3374.7" r="18.7"/>
			<circle class="st1" cx="2243" cy="1973.4" r="18.7"/>
			<circle class="st1" cx="669.3" cy="721.1" r="18.7"/>
			<circle class="st1" cx="3216.2" cy="1142" r="18.7"/>
			<circle class="st1" cx="1937.1" cy="4089.2" r="18.7"/>
			<circle class="st1" cx="2672.5" cy="2191.6" r="18.7"/>
			<circle class="st1" cx="357.7" cy="1065.5" r="18.7"/>
			<circle class="st1" cx="2723.1" cy="2928.5" r="18.7"/>
			<circle class="st1" cx="1600.2" cy="3214.7" r="18.7"/>
			<circle class="st1" cx="1566.7" cy="2614.7" r="18.7"/>
			<circle class="st1" cx="1639.6" cy="541" r="18.7"/>
			<circle class="st1" cx="276.8" cy="1260.9" r="18.7"/>
			<circle class="st1" cx="1950.4" cy="623.3" r="18.7"/>
			<circle class="st1" cx="2766.8" cy="2383.1" r="18.7"/>
			<circle class="st1" cx="2075.8" cy="289.6" r="18.7"/>
			<circle class="st1" cx="2439.8" cy="938.9" r="18.7"/>
			<circle class="st1" cx="2358.4" cy="2752.7" r="18.7"/>
			<circle class="st1" cx="1579.4" cy="3846.2" r="18.7"/>
			<circle class="st1" cx="1819.5" cy="4113.3" r="18.7"/>
			<circle class="st1" cx="2604.2" cy="712.5" r="18.7"/>
			<circle class="st1" cx="625.7" cy="965" r="18.7"/>
			<circle class="st1" cx="1792.1" cy="2264.7" r="18.7"/>
			<circle class="st1" cx="1603.1" cy="2967.4" r="18.7"/>
			<circle class="st1" cx="2548" cy="2635.6" r="18.7"/>
			<circle class="st1" cx="707.7" cy="1578.1" r="18.7"/>
			<circle class="st1" cx="1309.2" cy="1329.3" r="18.7"/>
			<circle class="st1" cx="1825.9" cy="2711.4" r="18.7"/>
			<circle class="st1" cx="2752.7" cy="880" r="18.7"/>
			<circle class="st1" cx="2853.7" cy="3760.2" r="18.7"/>
			<circle class="st1" cx="3002.9" cy="924.3" r="18.7"/>
			<circle class="st1" cx="2824.1" cy="589.5" r="18.7"/>
			<circle class="st1" cx="2770.6" cy="995.9" r="18.7"/>
			<circle class="st1" cx="2286" cy="901.3" r="18.7"/>
			<circle class="st1" cx="1629.3" cy="275.5" r="18.7"/>
			<circle class="st1" cx="3016.8" cy="3101" r="18.7"/>
			<circle class="st1" cx="2322.5" cy="3438.9" r="18.7"/>
			<circle class="st1" cx="3113.4" cy="2705.5" r="18.7"/>
			<circle class="st1" cx="3024.2" cy="1327.7" r="18.7"/>
			<circle class="st1" cx="1694.9" cy="1975.4" r="18.7"/>
			<circle class="st1" cx="751.6" cy="1382.9" r="18.7"/>
			<circle class="st1" cx="2898.5" cy="1149.5" r="18.7"/>
			<circle class="st1" cx="1015.7" cy="2129.9" r="18.7"/>
			<circle class="st1" cx="1744.8" cy="1551.5" r="18.7"/>
			<circle class="st1" cx="2658.2" cy="1350.2" r="18.7"/>
			<circle class="st1" cx="2066.2" cy="635.7" r="18.7"/>
			<circle class="st1" cx="3251.9" cy="1703.7" r="18.7"/>
			<circle class="st1" cx="2300" cy="2964.6" r="18.7"/>
			<circle class="st1" cx="3131.2" cy="2328.1" r="18.7"/>
			<circle class="st1" cx="1495.5" cy="1546" r="18.7"/>
			<circle class="st1" cx="2481.8" cy="3133.2" r="18.7"/>
			<circle class="st1" cx="930.2" cy="833.1" r="18.7"/>
			<circle class="st1" cx="2190.5" cy="2874.7" r="18.7"/>
			<circle class="st1" cx="1871.7" cy="2507.8" r="18.7"/>
			<circle class="st1" cx="2439.6" cy="2930.1" r="18.7"/>
			<circle class="st1" cx="1040" cy="802.5" r="18.7"/>
			<circle class="st1" cx="1510.8" cy="2146.9" r="18.7"/>
			<circle class="st1" cx="1740" cy="1681.1" r="18.7"/>
			<circle class="st1" cx="2687.1" cy="2809" r="18.7"/>
			<circle class="st1" cx="2504" cy="2401.9" r="18.7"/>
			<circle class="st1" cx="841" cy="464.2" r="18.7"/>
			<circle class="st1" cx="2189.2" cy="308.6" r="18.7"/>
			<circle class="st1" cx="2050.3" cy="3194.1" r="18.7"/>
			<circle class="st1" cx="2688.5" cy="1215.3" r="18.7"/>
			<circle class="st1" cx="2161.1" cy="184" r="18.7"/>
			<circle class="st1" cx="1691.6" cy="3836.5" r="18.7"/>
			<circle class="st1" cx="1398.1" cy="758.4" r="18.7"/>
			<circle class="st1" cx="1743.9" cy="4021" r="18.7"/>
			<circle class="st1" cx="3034.1" cy="1452.4" r="18.7"/>
			<circle class="st1" cx="1794.5" cy="812.8" r="18.7"/>
			<circle class="st1" cx="2014.8" cy="3793.8" r="18.7"/>
			<circle class="st1" cx="1054.3" cy="468.3" r="18.7"/>
			<circle class="st1" cx="1630.5" cy="3725.6" r="18.7"/>
			<circle class="st1" cx="2982.9" cy="2504.3" r="18.7"/>
			<circle class="st1" cx="2780.3" cy="2715.4" r="18.7"/>
			<circle class="st1" cx="2941.9" cy="573.9" r="18.7"/>
			<circle class="st1" cx="1915.2" cy="2624.6" r="18.7"/>
			<circle class="st1" cx="1429.5" cy="3986.1" r="18.7"/>
			<circle class="st1" cx="2600.7" cy="583.2" r="18.7"/>
			<circle class="st1" cx="2915.5" cy="1391.4" r="18.7"/>
			<circle class="st1" cx="1796.6" cy="3892.9" r="18.7"/>
			<circle class="st1" cx="1841.1" cy="2827.8" r="18.7"/>
			<circle class="st1" cx="2073.1" cy="2822.3" r="18.7"/>
			<circle class="st1" cx="812.6" cy="1487.1" r="18.7"/>
			<circle class="st1" cx="2352.6" cy="1122.2" r="18.7"/>
			<circle class="st1" cx="1629.2" cy="1142.4" r="18.7"/>
			<circle class="st1" cx="2851.9" cy="2501" r="18.7"/>
			<circle class="st1" cx="2889.6" cy="2393.1" r="18.7"/>
			<circle class="st1" cx="1208.6" cy="1523.7" r="18.7"/>
			<circle class="st1" cx="1661.4" cy="3945.3" r="18.7"/>
			<circle class="st1" cx="1743.9" cy="2368.8" r="18.7"/>
			<circle class="st1" cx="2358.6" cy="2021" r="18.7"/>
			<circle class="st1" cx="2875.9" cy="3285.5" r="18.7"/>
			<circle class="st1" cx="2705.5" cy="1477.1" r="18.7"/>
			<circle class="st1" cx="3178.1" cy="3472.1" r="18.7"/>
			<circle class="st1" cx="2970" cy="806.5" r="18.7"/>
			<circle class="st1" cx="1252.2" cy="543.4" r="18.7"/>
			<circle class="st1" cx="2704.1" cy="640.1" r="18.7"/>
			<circle class="st1" cx="3173.5" cy="2055.5" r="18.7"/>
			<circle class="st1" cx="1471.4" cy="3866" r="18.7"/>
			<circle class="st1" cx="2204.2" cy="1623.6" r="18.7"/>
			<circle class="st1" cx="464" cy="1855.9" r="18.7"/>
			<circle class="st1" cx="664.3" cy="1686.5" r="18.7"/>
			<circle class="st1" cx="644" cy="603.9" r="18.7"/>
			<circle class="st1" cx="1128.5" cy="562.4" r="18.7"/>
			<circle class="st1" cx="2863.8" cy="2939.9" r="18.7"/>
			<circle class="st1" cx="1864.2" cy="3993.6" r="18.7"/>
			<circle class="st1" cx="1064.9" cy="343.4" r="18.7"/>
			<circle class="st1" cx="2867.5" cy="1817.4" r="18.7"/>
			<circle class="st1" cx="2160.3" cy="1741.7" r="18.7"/>
			<circle class="st1" cx="349.4" cy="1178.1" r="18.7"/>
			<circle class="st1" cx="2986" cy="2018.6" r="18.7"/>
			<circle class="st1" cx="2614.4" cy="463.2" r="18.7"/>
			<circle class="st1" cx="1197.9" cy="1143.3" r="18.7"/>
			<circle class="st1" cx="475.8" cy="777.3" r="18.7"/>
			<circle class="st1" cx="2579.1" cy="1251.6" r="18.7"/>
			<circle class="st1" cx="1762.7" cy="3756.8" r="18.7"/>
			<circle class="st1" cx="1071.5" cy="1184.8" r="18.7"/>
			<circle class="st1" cx="1690.2" cy="3402" r="18.7"/>
			<circle class="st1" cx="2057.6" cy="3068.3" r="18.7"/>
			<circle class="st1" cx="2629.2" cy="833" r="18.7"/>
			<circle class="st1" cx="2497.8" cy="3268.4" r="18.7"/>
			<circle class="st1" cx="1347.3" cy="1121.4" r="18.7"/>
			<circle class="st1" cx="1884.2" cy="725.5" r="18.7"/>
			<circle class="st1" cx="1566.4" cy="364.5" r="18.7"/>
			<circle class="st1" cx="1933.5" cy="1911.4" r="18.7"/>
			<circle class="st1" cx="1586.6" cy="2734.4" r="18.7"/>
			<circle class="st1" cx="208" cy="1351.5" r="18.7"/>
			<circle class="st1" cx="1839.4" cy="1775.1" r="18.7"/>
			<circle class="st1" cx="2971.6" cy="2152.3" r="18.7"/>
			<circle class="st1" cx="3137.9" cy="1386" r="18.7"/>
			<circle class="st1" cx="1950.7" cy="1802.1" r="18.7"/>
			<circle class="st1" cx="842.9" cy="1298" r="18.7"/>
			<circle class="st1" cx="538.3" cy="1741.2" r="18.7"/>
			<circle class="st1" cx="2120" cy="754.6" r="18.7"/>
			<circle class="st1" cx="2364.2" cy="459.4" r="18.7"/>
			<circle class="st1" cx="2452.8" cy="2692.8" r="18.7"/>
			<circle class="st1" cx="3099.4" cy="1821.6" r="18.7"/>
			<circle class="st1" cx="949.9" cy="1237.3" r="18.7"/>
			<circle class="st1" cx="604" cy="826.3" r="18.7"/>
			<circle class="st1" cx="1535.2" cy="1413.2" r="18.7"/>
			<circle class="st1" cx="1621.8" cy="1606.6" r="18.7"/>
			<circle class="st1" cx="2276.4" cy="3209.6" r="18.7"/>
			<circle class="st1" cx="3141.9" cy="903.8" r="18.7"/>
			<circle class="st1" cx="2286.5" cy="2249.3" r="18.7"/>
			<circle class="st1" cx="1202" cy="660.2" r="18.7"/>
			<circle class="st1" cx="2913" cy="3047" r="18.7"/>
			<circle class="st1" cx="984.2" cy="2277.9" r="18.7"/>
			<circle class="st1" cx="1576.1" cy="3475.7" r="18.7"/>
			<circle class="st1" cx="1921" cy="155.5" r="18.7"/>
			<circle class="st1" cx="2017.9" cy="511.2" r="18.7"/>
			<circle class="st1" cx="937.3" cy="1544.8" r="18.7"/>
			<circle class="st1" cx="2085.4" cy="2088.1" r="18.7"/>
			<circle class="st1" cx="2817.2" cy="2833.1" r="18.7"/>
			<circle class="st1" cx="761" cy="652.3" r="18.7"/>
			<circle class="st1" cx="868" cy="604.5" r="18.7"/>
			<circle class="st1" cx="2981.6" cy="3737.1" r="18.7"/>
			<circle class="st1" cx="2794.5" cy="3885.3" r="18.7"/>
			<circle class="st1" cx="3124.6" cy="1254.6" r="18.7"/>
			<circle class="st1" cx="1947.1" cy="1679.2" r="18.7"/>
			<circle class="st1" cx="2113.6" cy="2717.5" r="18.7"/>
			<circle class="st1" cx="2660" cy="3040.6" r="18.7"/>
			<circle class="st1" cx="2551.8" cy="1015" r="18.7"/>
			<circle class="st1" cx="2175.1" cy="848.2" r="18.7"/>
			<circle class="st1" cx="1170" cy="1281.5" r="18.7"/>
			<circle class="st1" cx="2771.8" cy="1880.5" r="18.7"/>
			<circle class="st1" cx="3008.6" cy="1201.6" r="18.7"/>
			<circle class="st1" cx="2910.8" cy="3635.1" r="18.7"/>
			<circle class="st1" cx="1505.7" cy="2021.6" r="18.7"/>
			<circle class="st1" cx="1005.8" cy="597.4" r="18.7"/>
			<circle class="st1" cx="1616" cy="2180.3" r="18.7"/>
			<circle class="st1" cx="1380.7" cy="1999.8" r="18.7"/>
			<circle class="st1" cx="2019" cy="2167.7" r="18.7"/>
			<circle class="st1" cx="1455.2" cy="658.3" r="18.7"/>
			<circle class="st1" cx="2057" cy="2281.7" r="18.7"/>
			<circle class="st1" cx="3244.3" cy="3729.5" r="18.7"/>
			<circle class="st1" cx="2297.2" cy="652.9" r="18.7"/>
			<circle class="st1" cx="1932.7" cy="3891" r="18.7"/>
			<circle class="st1" cx="2401.8" cy="3043.8" r="18.7"/>
			<circle class="st1" cx="2066.1" cy="3889.8" r="18.7"/>
			<circle class="st1" cx="2830.5" cy="3545.2" r="18.7"/>
			<circle class="st1" cx="942.1" cy="509.4" r="18.7"/>
			<circle class="st1" cx="2788.7" cy="3040.8" r="18.7"/>
			<circle class="st1" cx="1969.6" cy="389" r="18.7"/>
			<circle class="st1" cx="1553.1" cy="1256.5" r="18.7"/>
			<circle class="st1" cx="1870.1" cy="1490.5" r="18.7"/>
			<circle class="st1" cx="2964.3" cy="1765.5" r="18.7"/>
			<circle class="st1" cx="3117.1" cy="2960.6" r="18.7"/>
			<circle class="st1" cx="2661.6" cy="3942.5" r="18.7"/>
			<circle class="st1" cx="1784.8" cy="2595.4" r="18.7"/>
			<circle class="st1" cx="3250.7" cy="1470.9" r="18.7"/>
			<circle class="st1" cx="3034.7" cy="3631" r="18.7"/>
			<circle class="st1" cx="2879.6" cy="911.1" r="18.7"/>
			<circle class="st1" cx="2397.3" cy="2447.6" r="18.7"/>
			<circle class="st1" cx="1495.2" cy="2369.6" r="18.7"/>
			<circle class="st1" cx="1599.8" cy="2849.9" r="18.7"/>
			<circle class="st1" cx="1321.1" cy="1902.5" r="18.7"/>
			<circle class="st1" cx="2375.9" cy="3306.3" r="18.7"/>
			<circle class="st1" cx="2449.8" cy="1217.6" r="18.7"/>
			<circle class="st1" cx="2003.5" cy="751.6" r="18.7"/>
			<circle class="st1" cx="2571.5" cy="2764.9" r="18.7"/>
			<circle class="st1" cx="1984.3" cy="2026.5" r="18.7"/>
			<circle class="st1" cx="1777.7" cy="1173.7" r="18.7"/>
			<circle class="st1" cx="1258.9" cy="2038.4" r="18.7"/>
			<circle class="st1" cx="3178.5" cy="3830.1" r="18.7"/>
			<circle class="st1" cx="2100.1" cy="1964" r="18.7"/>
			<circle class="st1" cx="2198.1" cy="2461.2" r="18.7"/>
			<circle class="st1" cx="1713.7" cy="3146.9" r="18.7"/>
			<circle class="st1" cx="2189.9" cy="2614.5" r="18.7"/>
			<circle class="st1" cx="2035.3" cy="2633.4" r="18.7"/>
			<circle class="st1" cx="2161.4" cy="2197.2" r="18.7"/>
			<circle class="st1" cx="1936.6" cy="3591.6" r="18.7"/>
			<circle class="st1" cx="1587.8" cy="659.8" r="18.7"/>
			<circle class="st1" cx="1746.2" cy="347.9" r="18.7"/>
			<circle class="st1" cx="1761.1" cy="1425.2" r="18.7"/>
			<circle class="st1" cx="1795.8" cy="3447.7" r="18.7"/>
			<circle class="st1" cx="2990.2" cy="1884.8" r="18.7"/>
			<circle class="st1" cx="2103.1" cy="2534.7" r="18.7"/>
			<circle class="st1" cx="1547.5" cy="2275.7" r="18.7"/>
			<circle class="st1" cx="2077.9" cy="1626.8" r="18.7"/>
			<circle class="st1" cx="2026.5" cy="1302.9" r="18.7"/>
			<circle class="st1" cx="1670.9" cy="419.8" r="18.7"/>
			<circle class="st1" cx="2788.1" cy="2270.1" r="18.7"/>
			<circle class="st1" cx="2286" cy="3086.2" r="18.7"/>
			<circle class="st1" cx="1912.9" cy="3486.2" r="18.7"/>
			<circle class="st1" cx="2139.4" cy="1391.7" r="18.7"/>
			<circle class="st1" cx="2732.5" cy="402.1" r="18.7"/>
			<circle class="st1" cx="1514.6" cy="3735.3" r="18.7"/>
			<circle class="st1" cx="2907.1" cy="1277.2" r="18.7"/>
			<circle class="st1" cx="1288.4" cy="242.5" r="18.7"/>
			<circle class="st1" cx="2867.2" cy="2187.7" r="18.7"/>
			<circle class="st1" cx="3055.3" cy="3829.4" r="18.7"/>
			<circle class="st1" cx="2379.3" cy="3685.5" r="18.7"/>
			<circle class="st1" cx="3250.7" cy="1586.6" r="18.7"/>
			<circle class="st1" cx="2673.7" cy="2068.4" r="18.7"/>
			<circle class="st1" cx="2442.3" cy="3410.7" r="18.7"/>
			<circle class="st1" cx="1382.6" cy="4093.4" r="18.7"/>
			<circle class="st1" cx="2622.2" cy="2417.6" r="18.7"/>
			<circle class="st1" cx="2514.2" cy="284.9" r="18.7"/>
			<circle class="st1" cx="2007.2" cy="1432.5" r="18.7"/>
			<circle class="st1" cx="1762.4" cy="711.9" r="18.7"/>
			<circle class="st1" cx="1198.1" cy="1940.7" r="18.7"/>
			<circle class="st1" cx="1101.3" cy="2025.5" r="18.7"/>
			<circle class="st1" cx="1752.9" cy="2475.8" r="18.7"/>
			<circle class="st1" cx="3143.9" cy="1520.4" r="18.7"/>
			<circle class="st1" cx="3072.4" cy="2104.4" r="18.7"/>
			<circle class="st1" cx="2535.1" cy="3016" r="18.7"/>
			<circle class="st1" cx="2067.2" cy="2943.8" r="18.7"/>
			<circle class="st1" cx="1342.9" cy="4309.9" r="18.7"/>
			<circle class="st1" cx="2884.6" cy="1941.2" r="18.7"/>
			<circle class="st1" cx="3100.9" cy="2840.4" r="18.7"/>
			<circle class="st1" cx="2561.8" cy="1141.7" r="18.7"/>
			<circle class="st1" cx="3190.9" cy="1023.7" r="18.7"/>
			<circle class="st1" cx="91.3" cy="1533.9" r="18.7"/>
			<circle class="st1" cx="1807" cy="3324.6" r="18.7"/>
			<circle class="st1" cx="2959.1" cy="3508.9" r="18.7"/>
			<circle class="st1" cx="1703" cy="4148.2" r="18.7"/>
			<circle class="st1" cx="2153.2" cy="954.7" r="18.7"/>
			<circle class="st1" cx="2779.6" cy="1342.5" r="18.7"/>
			<circle class="st1" cx="3013.7" cy="2377.8" r="18.7"/>
			<circle class="st1" cx="2522" cy="2293" r="18.7"/>
			<circle class="st1" cx="2456.8" cy="1079.7" r="18.7"/>
			<circle class="st1" cx="212.2" cy="1170.8" r="18.7"/>
			<circle class="st1" cx="1353.3" cy="1533.4" r="18.7"/>
			<circle class="st1" cx="2933.4" cy="1515.4" r="18.7"/>
			<circle class="st1" cx="1649.3" cy="1359.5" r="18.7"/>
			<circle class="st1" cx="1842.9" cy="3674" r="18.7"/>
			<circle class="st1" cx="1717.3" cy="3021.8" r="18.7"/>
			<circle class="st1" cx="2111.7" cy="1512.3" r="18.7"/>
			<circle class="st1" cx="2396.3" cy="239.3" r="18.7"/>
			<circle class="st1" cx="1538.6" cy="181.3" r="18.7"/>
			<circle class="st1" cx="2981.8" cy="3213.4" r="18.7"/>
			<circle class="st1" cx="1355.5" cy="4196.3" r="18.7"/>
			<circle class="st1" cx="3052.3" cy="3298.3" r="18.7"/>
			<circle class="st1" cx="2257.2" cy="3333.1" r="18.7"/>
			<circle class="st1" cx="1077.2" cy="1528.5" r="18.7"/>
			<circle class="st1" cx="947.8" cy="706.8" r="18.7"/>
			<circle class="st1" cx="2915.9" cy="692.9" r="18.7"/>
			<circle class="st1" cx="395.6" cy="864.8" r="18.7"/>
			<circle class="st1" cx="2385" cy="832.2" r="18.7"/>
			<circle class="st1" cx="2241.5" cy="1504.6" r="18.7"/>
			<circle class="st1" cx="2782" cy="1112.8" r="18.7"/>
			<circle class="st1" cx="1682.4" cy="3529.1" r="18.7"/>
			<circle class="st1" cx="2872.1" cy="3155.8" r="18.7"/>
			<circle class="st1" cx="2228.7" cy="2755.1" r="18.7"/>
			<circle class="st1" cx="2730" cy="1616.2" r="18.7"/>
			<circle class="st1" cx="2166.3" cy="3243.4" r="18.7"/>
			<circle class="st1" cx="129.4" cy="1418.4" r="18.7"/>
			<circle class="st1" cx="2476.7" cy="2049.5" r="18.7"/>
			<circle class="st1" cx="1172.6" cy="436.2" r="18.7"/>
			<circle class="st1" cx="435.7" cy="981.3" r="18.7"/>
			<circle class="st1" cx="813.1" cy="1608.7" r="18.7"/>
			<circle class="st1" cx="1258.7" cy="358.4" r="18.7"/>
			<circle class="st1" cx="2124.1" cy="3986.3" r="18.7"/>
			<circle class="st1" cx="2193.6" cy="1861.2" r="18.7"/>
			<circle class="st1" cx="1881.6" cy="3790.3" r="18.7"/>
			<circle class="st1" cx="2181.6" cy="2325.9" r="18.7"/>
			<circle class="st1" cx="3054.7" cy="1708" r="18.7"/>
			<circle class="st1" cx="2719.7" cy="764.9" r="18.7"/>
			<circle class="st1" cx="2265" cy="540.5" r="18.7"/>
			<circle class="st1" cx="1668.5" cy="2283" r="18.7"/>
			<circle class="st1" cx="3126.2" cy="3078.9" r="18.7"/>
			<circle class="st1" cx="1790.6" cy="1304.5" r="18.7"/>
			<circle class="st1" cx="1171" cy="2134.5" r="18.7"/>
			<circle class="st1" cx="3127.5" cy="3202.6" r="18.7"/>
			<circle class="st1" cx="2186.1" cy="2066.4" r="18.7"/>
			<circle class="st1" cx="1742.9" cy="239.2" r="18.7"/>
			<circle class="st1" cx="2167.9" cy="3125.5" r="18.7"/>
			<circle class="st1" cx="1509.2" cy="558.8" r="18.7"/>
			<circle class="st1" cx="1158" cy="779.1" r="18.7"/>
			<circle class="st1" cx="2666" cy="1082.6" r="18.7"/>
			<circle class="st1" cx="2925.4" cy="3849.8" r="18.7"/>
			<circle class="st1" cx="2623.4" cy="341" r="18.7"/>
			<circle class="st1" cx="2328" cy="1635.4" r="18.7"/>
			<circle class="st1" cx="1407.8" cy="1431.7" r="18.7"/>
			<circle class="st1" cx="1327.3" cy="648.3" r="18.7"/>
			<circle class="st1" cx="2779" cy="2004.9" r="18.7"/>
			<circle class="st1" cx="2468.1" cy="2821.9" r="18.7"/>
			<circle class="st1" cx="3000.4" cy="2631.7" r="18.7"/>
			<circle class="st1" cx="1896.5" cy="505.9" r="18.7"/>
			<circle class="st1" cx="1975.1" cy="1555.1" r="18.7"/>
			<circle class="st1" cx="1039.6" cy="1317.7" r="18.7"/>
			<circle class="st1" cx="2097.4" cy="410" r="18.7"/>
			<circle class="st1" cx="1725.4" cy="2159.5" r="18.7"/>
			<circle class="st1" cx="2190.8" cy="4083.3" r="18.7"/>
			<circle class="st1" cx="1632.5" cy="1486.8" r="18.7"/>
			<circle class="st1" cx="2991.7" cy="1069.2" r="18.7"/>
			<circle class="st1" cx="1625.9" cy="2064" r="18.7"/>
			<circle class="st1" cx="3061.8" cy="3426" r="18.7"/>
			<circle class="st1" cx="1602.5" cy="3089.9" r="18.7"/>
			<circle class="st1" cx="1410.5" cy="206.6" r="18.7"/>
			<circle class="st1" cx="3087.3" cy="1960.9" r="18.7"/>
			<circle class="st1" cx="1859" cy="2389.5" r="18.7"/>
			<circle class="st1" cx="1562.2" cy="3607.5" r="18.7"/>
			<circle class="st1" cx="1457.1" cy="1897.3" r="18.7"/>
			<circle class="st1" cx="1962.6" cy="2748.1" r="18.7"/>
			<circle class="st1" cx="2389.5" cy="580.7" r="18.7"/>
			<circle class="st1" cx="3197.3" cy="3606.5" r="18.7"/>
			<circle class="st1" cx="3102.8" cy="1126.8" r="18.7"/>
			<circle class="st1" cx="2278.9" cy="210" r="18.7"/>
			<circle class="st1" cx="3089.2" cy="798" r="18.7"/>
			<circle class="st1" cx="830.9" cy="746.1" r="18.7"/>
			<circle class="st1" cx="3012.3" cy="2752.7" r="18.7"/>
			<circle class="st1" cx="1681.7" cy="1247.8" r="18.7"/>
			<circle class="st1" cx="2358.4" cy="1001.9" r="18.7"/>
			<circle class="st1" cx="1465.2" cy="4237.9" r="18.7"/>
			<circle class="st1" cx="2672.4" cy="1947.1" r="18.7"/>
			<circle class="st1" cx="2802.2" cy="1228.6" r="18.7"/>
			<circle class="st1" cx="1764.2" cy="499.1" r="18.7"/>
			<circle class="st1" cx="1849.2" cy="1623.8" r="18.7"/>
			<circle class="st1" cx="1168.8" cy="291" r="18.7"/>
			<circle class="st1" cx="2325.5" cy="2856.2" r="18.7"/>
			<circle class="st1" cx="661.8" cy="1478.9" r="18.7"/>
			<circle class="st1" cx="2663.8" cy="2677.1" r="18.7"/>
			<circle class="st1" cx="1321.5" cy="448.6" r="18.7"/>
			<circle class="st1" cx="1939.6" cy="3133.5" r="18.7"/>
			<circle class="st1" cx="1016.2" cy="1435.3" r="18.7"/>
			<circle class="st1" cx="1583" cy="1924.3" r="18.7"/>
			<circle class="st1" cx="2252.3" cy="1025.5" r="18.7"/>
			<circle class="st1" cx="2956.9" cy="2855" r="18.7"/>
			<circle class="st1" cx="2304.2" cy="336.5" r="18.7"/>
			<circle class="st1" cx="1994.5" cy="3985.7" r="18.7"/>
			<circle class="st1" cx="1657.8" cy="772.7" r="18.7"/>
			<circle class="st1" cx="2772.7" cy="2132.6" r="18.7"/>
			<circle class="st1" cx="2277.9" cy="1752.5" r="18.7"/>
			<circle class="st1" cx="1081.7" cy="2216" r="18.7"/>
			<circle class="st1" cx="1934.8" cy="3258.6" r="18.7"/>
			<circle class="st1" cx="2959.6" cy="3367.3" r="18.7"/>
			<circle class="st1" cx="2516.7" cy="1338.4" r="18.7"/>
			<circle class="st1" cx="1448.6" cy="429.6" r="18.7"/>
			<circle class="st1" cx="3195.6" cy="1925.6" r="18.7"/>
			<circle class="st1" cx="1625.4" cy="2402.3" r="18.7"/>
			<circle class="st1" cx="1986.7" cy="2506.1" r="18.7"/>
			<circle class="st1" cx="3107.7" cy="2575.5" r="18.7"/>
			<circle class="st1" cx="2654" cy="955.3" r="18.7"/>
			<circle class="st1" cx="1376.3" cy="331" r="18.7"/>
			<circle class="st1" cx="554.2" cy="692.3" r="18.7"/>
			<circle class="st1" cx="2381.9" cy="3548.1" r="18.7"/>
			<circle class="st1" cx="1822.8" cy="3202.4" r="18.7"/>
			<circle class="st1" cx="2393.4" cy="713.6" r="18.7"/>
			<circle class="st1" cx="2587.5" cy="2902.2" r="18.7"/>
			<circle class="st1" cx="2817.9" cy="1453.2" r="18.7"/>
			<circle class="st1" cx="1720.8" cy="2899.2" r="18.7"/>
			<circle class="st1" cx="2888.9" cy="1024.3" r="18.7"/>
			<circle class="st1" cx="1703.9" cy="3273.5" r="18.7"/>
			<circle class="st1" cx="2754.1" cy="1751.7" r="18.7"/>
			<circle class="st1" cx="2923.8" cy="2284.4" r="18.7"/>
			<circle class="st1" cx="2759.6" cy="2596.1" r="18.7"/>
			<circle class="st1" cx="727" cy="812.1" r="18.7"/>
			<circle class="st1" cx="2042.8" cy="164.6" r="18.7"/>
			<circle class="st1" cx="1665.1" cy="156.3" r="18.7"/>
			<circle class="st1" cx="2500.5" cy="781.3" r="18.7"/>
			<circle class="st1" cx="2185.3" cy="652.1" r="18.7"/>
			<circle class="st1" cx="2178.6" cy="3002.1" r="18.7"/>
			<circle class="st1" cx="1807.1" cy="3563.3" r="18.7"/>
			<circle class="st1" cx="2633.1" cy="2548.7" r="18.7"/>
			<circle class="st1" cx="3215.9" cy="1807" r="18.7"/>
			<circle class="st1" cx="3237" cy="1252.9" r="18.7"/>
			<circle class="st1" cx="1829.3" cy="3076.5" r="18.7"/>
			<circle class="st1" cx="3156" cy="3339.2" r="18.7"/>
			<circle class="st1" cx="2582.9" cy="3144.8" r="18.7"/>
			<circle class="st1" cx="1408" cy="1226.7" r="18.7"/>
			<circle class="st1" cx="2858.5" cy="3422.2" r="18.7"/>
			<circle class="st1" cx="2403.6" cy="2303" r="18.7"/>
			<circle class="st1" cx="1423.6" cy="2241.5" r="18.7"/>
			<circle class="st1" cx="1827.4" cy="608" r="18.7"/>
			<circle class="st1" cx="2945.1" cy="1638.1" r="18.7"/>
			<circle class="st1" cx="2409.6" cy="2578.7" r="18.7"/>
			<circle class="st1" cx="2296.6" cy="2381" r="18.7"/>
			<circle class="st1" cx="2086.7" cy="2410" r="18.7"/>
			<circle class="st1" cx="2643.6" cy="1696.7" r="18.7"/>
			<circle class="st1" cx="1402.4" cy="2110.4" r="18.7"/>
			<circle class="st1" cx="3112.8" cy="2455.2" r="18.7"/>
			<circle class="st1" cx="1947.6" cy="3006.6" r="18.7"/>
			<circle class="st1" cx="1274.1" cy="1431.5" r="18.7"/>
			<circle class="st1" cx="907.1" cy="1394.4" r="18.7"/>
			<circle class="st1" cx="2662.3" cy="1823.6" r="18.7"/>
			<circle class="st1" cx="2490.8" cy="521.6" r="18.7"/>
		</g>
	</g>
</svg>
