<?xml version="1.0" encoding="utf-8"?>
<!-- Generator: Adobe Illustrator 21.1.0, SVG Export Plug-In . SVG Version: 6.00 Build 0)  -->
<svg version="1.1" id="O" xmlns="http://www.w3.org/2000/svg" xmlns:xlink="http://www.w3.org/1999/xlink" x="0px" y="0px"
	 viewBox="0 0 3456 6912" style="enable-background:new 0 0 3456 6912;" xml:space="preserve">
<style type="text/css">
	.st0{fill:none;stroke:#FF0000;stroke-width:7.200000e-02;stroke-miterlimit:10;}
	.st1{fill:#FFFFFF;stroke:#000000;stroke-miterlimit:10;}
</style>
<g>
	<g>
		<circle class="st0" cx="559.9" cy="1555.5" r="18.7"/>
		<circle class="st0" cx="644.9" cy="1487.8" r="18.7"/>
		<circle class="st0" cx="1478.4" cy="695.2" r="18.7"/>
		<circle class="st0" cx="227.2" cy="1143.1" r="18.7"/>
		<circle class="st0" cx="432.6" cy="545.4" r="18.7"/>
		<circle class="st0" cx="1358.9" cy="478" r="18.7"/>
		<circle class="st0" cx="944.1" cy="1821.8" r="18.7"/>
		<circle class="st0" cx="556.5" cy="560.3" r="18.7"/>
		<circle class="st0" cx="682.3" cy="566.8" r="18.7"/>
		<circle class="st0" cx="1047.5" cy="1306.8" r="18.7"/>
		<circle class="st0" cx="886.3" cy="1501.3" r="18.7"/>
		<circle class="st0" cx="1280.6" cy="629.5" r="18.7"/>
		<circle class="st0" cx="810" cy="1616.1" r="18.7"/>
		<circle class="st0" cx="1282.2" cy="1332.9" r="18.7"/>
		<circle class="st0" cx="564.9" cy="1202.4" r="18.7"/>
		<circle class="st0" cx="632.8" cy="465.7" r="18.7"/>
		<circle class="st0" cx="1364.7" cy="1105.3" r="18.7"/>
		<circle class="st0" cx="1136" cy="1559.6" r="18.7"/>
		<circle class="st0" cx="994.1" cy="455.3" r="18.7"/>
		<circle class="st0" cx="1015.3" cy="1528.4" r="18.7"/>
		<circle class="st0" cx="229.2" cy="1269.3" r="18.7"/>
		<circle class="st0" cx="439.3" cy="1210" r="18.7"/>
		<circle class="st0" cx="608.3" cy="673.3" r="18.7"/>
		<circle class="st0" cx="1423.5" cy="575.9" r="18.7"/>
		<circle class="st0" cx="471.7" cy="1625.5" r="18.7"/>
		<circle class="st0" cx="646.6" cy="1095.6" r="18.7"/>
		<circle class="st0" cx="1422.7" cy="1307.8" r="18.7"/>
		<circle class="st0" cx="698.4" cy="1390" r="18.7"/>
		<circle class="st0" cx="961.5" cy="339.9" r="18.7"/>
		<circle class="st0" cx="653.3" cy="956" r="18.7"/>
		<circle class="st0" cx="1394.7" cy="833.1" r="18.7"/>
		<circle class="st0" cx="398" cy="1696.1" r="18.7"/>
		<circle class="st0" cx="486.9" cy="1318.7" r="18.7"/>
		<circle class="st0" cx="927.4" cy="1607.4" r="18.7"/>
		<circle class="st0" cx="1213" cy="421.3" r="18.7"/>
		<circle class="st0" cx="259.6" cy="899.7" r="18.7"/>
		<circle class="st0" cx="485.5" cy="657.4" r="18.7"/>
		<circle class="st0" cx="515.3" cy="442.9" r="18.7"/>
		<circle class="st0" cx="662.4" cy="806.9" r="18.7"/>
		<circle class="st0" cx="760.8" cy="1505.9" r="18.7"/>
		<circle class="st0" cx="793.6" cy="565.7" r="18.7"/>
		<circle class="st0" cx="492.9" cy="1105.5" r="18.7"/>
		<circle class="st0" cx="1318.4" cy="1521.3" r="18.7"/>
		<circle class="st0" cx="723.9" cy="298.4" r="18.7"/>
		<circle class="st0" cx="836" cy="247" r="18.7"/>
		<circle class="st0" cx="304.1" cy="773.7" r="18.7"/>
		<circle class="st0" cx="437.4" cy="1512.6" r="18.7"/>
		<circle class="st0" cx="539.7" cy="1425.2" r="18.7"/>
		<circle class="st0" cx="1305.2" cy="368" r="18.7"/>
		<circle class="st0" cx="1225.3" cy="1458.6" r="18.7"/>
		<circle class="st0" cx="1499.6" cy="816.8" r="18.7"/>
		<circle class="st0" cx="772.2" cy="1292.9" r="18.7"/>
		<circle class="st0" cx="239.6" cy="1027.6" r="18.7"/>
		<circle class="st0" cx="1196.6" cy="291.6" r="18.7"/>
		<circle class="st0" cx="618.3" cy="355.5" r="18.7"/>
		<circle class="st0" cx="473.2" cy="864.7" r="18.7"/>
		<circle class="st0" cx="1224" cy="540.6" r="18.7"/>
		<circle class="st0" cx="1039.4" cy="1649.9" r="18.7"/>
		<circle class="st0" cx="1230.3" cy="1131.2" r="18.7"/>
		<circle class="st0" cx="712.8" cy="1847.1" r="18.7"/>
		<circle class="st0" cx="1089.5" cy="362.5" r="18.7"/>
		<circle class="st0" cx="746.4" cy="437.8" r="18.7"/>
		<circle class="st0" cx="718.2" cy="682.8" r="18.7"/>
		<circle class="st0" cx="1272.9" cy="1017.2" r="18.7"/>
		<circle class="st0" cx="683.7" cy="1730.1" r="18.7"/>
		<circle class="st0" cx="1373" cy="1417.7" r="18.7"/>
		<circle class="st0" cx="254.5" cy="1386.3" r="18.7"/>
		<circle class="st0" cx="1390" cy="974.5" r="18.7"/>
		<circle class="st0" cx="595.4" cy="1818" r="18.7"/>
		<circle class="st0" cx="1049.8" cy="1767.3" r="18.7"/>
		<circle class="st0" cx="571.2" cy="893.4" r="18.7"/>
		<circle class="st0" cx="324.6" cy="1197.6" r="18.7"/>
		<circle class="st0" cx="1076.6" cy="242.5" r="18.7"/>
		<circle class="st0" cx="691.2" cy="1207.5" r="18.7"/>
		<circle class="st0" cx="1294" cy="893.2" r="18.7"/>
		<circle class="st0" cx="455" cy="983.7" r="18.7"/>
		<circle class="st0" cx="685" cy="1610.7" r="18.7"/>
		<circle class="st0" cx="394" cy="1412.3" r="18.7"/>
		<circle class="st0" cx="354.9" cy="1307.4" r="18.7"/>
		<circle class="st0" cx="343.4" cy="983.7" r="18.7"/>
		<circle class="st0" cx="369.7" cy="872.4" r="18.7"/>
		<circle class="st0" cx="361.9" cy="655.1" r="18.7"/>
		<circle class="st0" cx="1499.9" cy="939.7" r="18.7"/>
		<circle class="st0" cx="562.3" cy="1018.1" r="18.7"/>
		<circle class="st0" cx="1319.2" cy="1222.2" r="18.7"/>
		<circle class="st0" cx="880.3" cy="484.3" r="18.7"/>
		<circle class="st0" cx="1153" cy="1695.5" r="18.7"/>
		<circle class="st0" cx="616.3" cy="1314.1" r="18.7"/>
		<circle class="st0" cx="843.2" cy="366.2" r="18.7"/>
		<circle class="st0" cx="795.4" cy="1731.4" r="18.7"/>
		<circle class="st0" cx="1241.3" cy="1610.4" r="18.7"/>
		<circle class="st0" cx="917.3" cy="1716.9" r="18.7"/>
		<circle class="st0" cx="907.6" cy="1326.8" r="18.7"/>
		<circle class="st0" cx="1166.6" cy="1346" r="18.7"/>
		<circle class="st0" cx="830.4" cy="1844.3" r="18.7"/>
		<circle class="st0" cx="975.3" cy="1414.2" r="18.7"/>
		<circle class="st0" cx="339.5" cy="1595.9" r="18.7"/>
		<circle class="st0" cx="422.8" cy="758.4" r="18.7"/>
		<circle class="st0" cx="955.1" cy="225.1" r="18.7"/>
		<circle class="st0" cx="578.9" cy="1681.2" r="18.7"/>
		<circle class="st0" cx="1164.1" cy="1229.3" r="18.7"/>
		<circle class="st0" cx="1096.5" cy="1437.8" r="18.7"/>
		<circle class="st0" cx="546.5" cy="769.8" r="18.7"/>
		<circle class="st0" cx="1113.8" cy="482.1" r="18.7"/>
		<circle class="st0" cx="290.9" cy="1494.9" r="18.7"/>
		<circle class="st0" cx="1376.5" cy="696.9" r="18.7"/>
		<circle class="st0" cx="1461.4" cy="1192.2" r="18.7"/>
		<circle class="st0" cx="824.2" cy="1403.1" r="18.7"/>
		<circle class="st0" cx="1488.9" cy="1067.3" r="18.7"/>
		<circle class="st0" cx="491.6" cy="1764.2" r="18.7"/>
		<circle class="st0" cx="1289.1" cy="762.3" r="18.7"/>
		<circle class="st0" cx="365.2" cy="1093" r="18.7"/>
	</g>
</g>
<rect x="167.2" y="167.2" class="st1" width="1394.2" height="1743"/>
</svg>
