<?xml version="1.0" encoding="utf-8"?>
<!-- Generator: Adobe Illustrator 21.1.0, SVG Export Plug-In . SVG Version: 6.00 Build 0)  -->
<svg version="1.1" id="S" xmlns="http://www.w3.org/2000/svg" xmlns:xlink="http://www.w3.org/1999/xlink" x="0px" y="0px"
	 viewBox="0 0 3456 6912" style="enable-background:new 0 0 3456 6912;" xml:space="preserve">
<style type="text/css">
	.st0{fill:none;stroke:#FF0000;stroke-width:7.200000e-02;stroke-miterlimit:10;}
	.st1{fill:#FFFFFF;stroke:#000000;stroke-miterlimit:10;}
</style>
<g>
	<g>
		<circle class="st0" cx="937.1" cy="2355.4" r="18.7"/>
		<circle class="st0" cx="552.3" cy="1719.1" r="18.7"/>
		<circle class="st0" cx="353.9" cy="1578.9" r="18.7"/>
		<circle class="st0" cx="432.5" cy="1777.3" r="18.7"/>
		<circle class="st0" cx="201" cy="1798" r="18.7"/>
		<circle class="st0" cx="1112.7" cy="1735.1" r="18.7"/>
		<circle class="st0" cx="372.9" cy="751.6" r="18.7"/>
		<circle class="st0" cx="843.1" cy="842.2" r="18.7"/>
		<circle class="st0" cx="131.4" cy="1562.6" r="18.7"/>
		<circle class="st0" cx="684.8" cy="2139.9" r="18.7"/>
		<circle class="st0" cx="393.1" cy="2086.4" r="18.7"/>
		<circle class="st0" cx="1354.9" cy="2166.3" r="18.7"/>
		<circle class="st0" cx="1211.3" cy="1806.2" r="18.7"/>
		<circle class="st0" cx="796.5" cy="2090.2" r="18.7"/>
		<circle class="st0" cx="950" cy="1966.5" r="18.7"/>
		<circle class="st0" cx="1118.7" cy="2250.2" r="18.7"/>
		<circle class="st0" cx="914.3" cy="2088.8" r="18.7"/>
		<circle class="st0" cx="1085.2" cy="1509.2" r="18.7"/>
		<circle class="st0" cx="240.6" cy="1606.8" r="18.7"/>
		<circle class="st0" cx="1023.9" cy="517.5" r="18.7"/>
		<circle class="st0" cx="566" cy="156.1" r="18.7"/>
		<circle class="st0" cx="252.4" cy="1230.1" r="18.7"/>
		<circle class="st0" cx="707.2" cy="833" r="18.7"/>
		<circle class="st0" cx="405" cy="955.7" r="18.7"/>
		<circle class="st0" cx="1030.1" cy="1839.5" r="18.7"/>
		<circle class="st0" cx="1037.2" cy="2057.4" r="18.7"/>
		<circle class="st0" cx="783.8" cy="1438.4" r="18.7"/>
		<circle class="st0" cx="1058.3" cy="963.4" r="18.7"/>
		<circle class="st0" cx="454.5" cy="164" r="18.7"/>
		<circle class="st0" cx="1136.2" cy="2128.6" r="18.7"/>
		<circle class="st0" cx="780.7" cy="1671" r="18.7"/>
		<circle class="st0" cx="785.3" cy="2204.5" r="18.7"/>
		<circle class="st0" cx="430.9" cy="545.9" r="18.7"/>
		<circle class="st0" cx="833.7" cy="367.2" r="18.7"/>
		<circle class="st0" cx="799.7" cy="621.5" r="18.7"/>
		<circle class="st0" cx="665.2" cy="728.9" r="18.7"/>
		<circle class="st0" cx="168.4" cy="1325.5" r="18.7"/>
		<circle class="st0" cx="621.1" cy="261.8" r="18.7"/>
		<circle class="st0" cx="1266.2" cy="980.1" r="18.7"/>
		<circle class="st0" cx="462.5" cy="828.6" r="18.7"/>
		<circle class="st0" cx="818.8" cy="2321.4" r="18.7"/>
		<circle class="st0" cx="1143.9" cy="1881.1" r="18.7"/>
		<circle class="st0" cx="888" cy="691.7" r="18.7"/>
		<circle class="st0" cx="1075.5" cy="409.2" r="18.7"/>
		<circle class="st0" cx="333.2" cy="1841.7" r="18.7"/>
		<circle class="st0" cx="938.1" cy="786.8" r="18.7"/>
		<circle class="st0" cx="1169.3" cy="1602.4" r="18.7"/>
		<circle class="st0" cx="695.8" cy="2279.1" r="18.7"/>
		<circle class="st0" cx="333.3" cy="857.2" r="18.7"/>
		<circle class="st0" cx="772.8" cy="1873.7" r="18.7"/>
		<circle class="st0" cx="984.6" cy="327.2" r="18.7"/>
		<circle class="st0" cx="246.5" cy="1909.1" r="18.7"/>
		<circle class="st0" cx="486.9" cy="283.7" r="18.7"/>
		<circle class="st0" cx="142.3" cy="1445.9" r="18.7"/>
		<circle class="st0" cx="890" cy="1451.8" r="18.7"/>
		<circle class="st0" cx="1041.1" cy="1636.7" r="18.7"/>
		<circle class="st0" cx="524.3" cy="942.2" r="18.7"/>
		<circle class="st0" cx="860.9" cy="981.9" r="18.7"/>
		<circle class="st0" cx="576.1" cy="1954.2" r="18.7"/>
		<circle class="st0" cx="1181" cy="813.5" r="18.7"/>
		<circle class="st0" cx="902.7" cy="1652.3" r="18.7"/>
		<circle class="st0" cx="1113.7" cy="721.1" r="18.7"/>
		<circle class="st0" cx="271" cy="738.8" r="18.7"/>
		<circle class="st0" cx="589.3" cy="2077.6" r="18.7"/>
		<circle class="st0" cx="736.3" cy="1341.6" r="18.7"/>
		<circle class="st0" cx="994.1" cy="1414.5" r="18.7"/>
		<circle class="st0" cx="1212.2" cy="618.7" r="18.7"/>
		<circle class="st0" cx="275.2" cy="1485.8" r="18.7"/>
		<circle class="st0" cx="1083" cy="615.1" r="18.7"/>
		<circle class="st0" cx="440.9" cy="1907.8" r="18.7"/>
		<circle class="st0" cx="257.4" cy="1372.5" r="18.7"/>
		<circle class="st0" cx="307.2" cy="1713.5" r="18.7"/>
		<circle class="st0" cx="1074" cy="2369.1" r="18.7"/>
		<circle class="st0" cx="1360.6" cy="1919.4" r="18.7"/>
		<circle class="st0" cx="1257.4" cy="2080.6" r="18.7"/>
		<circle class="st0" cx="686.9" cy="168.7" r="18.7"/>
		<circle class="st0" cx="960.6" cy="1544.6" r="18.7"/>
		<circle class="st0" cx="938.8" cy="433.6" r="18.7"/>
		<circle class="st0" cx="483" cy="1058.6" r="18.7"/>
		<circle class="st0" cx="1070.8" cy="1072.1" r="18.7"/>
		<circle class="st0" cx="477.6" cy="2019.9" r="18.7"/>
		<circle class="st0" cx="434.4" cy="678" r="18.7"/>
		<circle class="st0" cx="1255.9" cy="1941.7" r="18.7"/>
		<circle class="st0" cx="1199.6" cy="2343.5" r="18.7"/>
		<circle class="st0" cx="603.6" cy="1046.5" r="18.7"/>
		<circle class="st0" cx="376.8" cy="350.7" r="18.7"/>
		<circle class="st0" cx="784.5" cy="223" r="18.7"/>
		<circle class="st0" cx="437.7" cy="1659.9" r="18.7"/>
		<circle class="st0" cx="828.4" cy="1768" r="18.7"/>
		<circle class="st0" cx="549.7" cy="1833.9" r="18.7"/>
		<circle class="st0" cx="954.9" cy="903.6" r="18.7"/>
		<circle class="st0" cx="358.3" cy="217.6" r="18.7"/>
		<circle class="st0" cx="474.5" cy="427.3" r="18.7"/>
		<circle class="st0" cx="897.8" cy="2215.9" r="18.7"/>
		<circle class="st0" cx="1159.6" cy="2010.8" r="18.7"/>
		<circle class="st0" cx="832.1" cy="1977.1" r="18.7"/>
		<circle class="st0" cx="273.6" cy="291.7" r="18.7"/>
		<circle class="st0" cx="694.7" cy="626.3" r="18.7"/>
		<circle class="st0" cx="782.4" cy="739.1" r="18.7"/>
		<circle class="st0" cx="1229.3" cy="2203.2" r="18.7"/>
		<circle class="st0" cx="663.3" cy="1872.2" r="18.7"/>
		<circle class="st0" cx="1257.4" cy="729.3" r="18.7"/>
		<circle class="st0" cx="330.3" cy="1989.8" r="18.7"/>
		<circle class="st0" cx="890.7" cy="260.4" r="18.7"/>
		<circle class="st0" cx="714.6" cy="340.5" r="18.7"/>
		<circle class="st0" cx="692.6" cy="1144.4" r="18.7"/>
		<circle class="st0" cx="701.5" cy="2000.2" r="18.7"/>
		<circle class="st0" cx="582.5" cy="368" r="18.7"/>
		<circle class="st0" cx="1367.5" cy="2040.3" r="18.7"/>
		<circle class="st0" cx="769.6" cy="922.9" r="18.7"/>
		<circle class="st0" cx="230.3" cy="627.7" r="18.7"/>
		<circle class="st0" cx="968.4" cy="1745.5" r="18.7"/>
		<circle class="st0" cx="1305.6" cy="2281.7" r="18.7"/>
		<circle class="st0" cx="786.8" cy="1235.9" r="18.7"/>
		<circle class="st0" cx="655.8" cy="1252.9" r="18.7"/>
		<circle class="st0" cx="1059.7" cy="1949.7" r="18.7"/>
		<circle class="st0" cx="490.5" cy="2155.9" r="18.7"/>
		<circle class="st0" cx="154.6" cy="1689.6" r="18.7"/>
		<circle class="st0" cx="236.3" cy="397.7" r="18.7"/>
		<circle class="st0" cx="340.6" cy="471.1" r="18.7"/>
		<circle class="st0" cx="1166.4" cy="932.4" r="18.7"/>
		<circle class="st0" cx="1154.1" cy="508.5" r="18.7"/>
		<circle class="st0" cx="880.4" cy="1327.6" r="18.7"/>
		<circle class="st0" cx="1318.2" cy="1805.8" r="18.7"/>
		<circle class="st0" cx="1280.7" cy="858.7" r="18.7"/>
		<circle class="st0" cx="820.2" cy="1555.8" r="18.7"/>
		<circle class="st0" cx="1249.1" cy="1693.3" r="18.7"/>
		<circle class="st0" cx="223.5" cy="513.1" r="18.7"/>
		<circle class="st0" cx="1075.4" cy="845.8" r="18.7"/>
		<circle class="st0" cx="1015.6" cy="2166.2" r="18.7"/>
		<circle class="st0" cx="959.1" cy="1035.6" r="18.7"/>
		<circle class="st0" cx="588.9" cy="2220.7" r="18.7"/>
		<circle class="st0" cx="903.1" cy="1859.7" r="18.7"/>
		<circle class="st0" cx="681" cy="1751.2" r="18.7"/>
		<circle class="st0" cx="1003.7" cy="2274" r="18.7"/>
		<circle class="st0" cx="1182.4" cy="1057.5" r="18.7"/>
		<circle class="st0" cx="569.4" cy="1157.8" r="18.7"/>
		<circle class="st0" cx="333.6" cy="609.7" r="18.7"/>
	</g>
</g>
<rect x="67.9" y="92.5" class="st1" width="1361.1" height="2332.7"/>
</svg>
